<?xml version="1.0" encoding="utf-8"?>
<svg version="1.1" id="Layer_1"
xmlns="http://www.w3.org/2000/svg"
xmlns:xlink="http://www.w3.org/1999/xlink"
xmlns:author="http://www.sothink.com"
width="310px" height="299px"
xml:space="preserve">
<g id="1" transform="matrix(1, 0, 0, 1, 154.65, 149.35)">
<path style="fill:#E4E4E4;fill-opacity:1" d="M-6.3,-128.45Q-13.55 -137.45 -23.25 -143.7L-24.8 -144.7L-28.15 -146.5Q-25.4 -145.85 -22.65 -144.8L-19.55 -143.5Q-11.7 -139.8 -4.95 -134.9L-3.4 -133.75Q3.55 -127.5 11.9 -118.35Q20.5 -108.65 24.2 -102.35L25.15 -100.7L25.65 -99.65L26.4 -97.85L26.55 -97.4L26.7 -97L26.75 -96.8L26.8 -96.6L26.8 -96.5L27.75 -90.75Q27.6 -89.45 27 -88.7Q25.35 -86.65 24.85 -86.6Q28.35 -85.95 31.35 -88.65Q32.7 -89.9 33.25 -91.2Q33.9 -92.85 33.4 -94.65Q32.7 -96.25 30.85 -98.95L29.6 -100.7L24.85 -106.85Q19.5 -113.5 12.15 -120.9Q17.45 -115.9 22.35 -110.45Q26.7 -105.8 30.55 -100.7L30.95 -100.25L32.25 -98.45Q33.5 -96.6 34.35 -94.55Q35.6 -88 29.15 -85.6L24 -85.15Q21.6 -85.45 19.25 -86.65Q14.7 -89 11.45 -92.4L11.15 -92.75L11.05 -92.8L10.7 -94.15L10.75 -94.1L11.45 -93.6L11.3 -94.05Q7.95 -104.65 2.8 -114.2L2.2 -115.4Q-0.7 -121.15 -4.85 -126.45L-6.3 -128.45" />
<radialGradient
id="RadialGradID_1" gradientUnits="userSpaceOnUse" gradientTransform="matrix(0.184967, -0.00556946, 0.00556946, 0.184967, 2.6, -126.1)" spreadMethod ="pad" cx="0" cy="0" r="819.2" fx="0" fy="0" >
<stop  offset="0.443137"  style="stop-color:#979797;stop-opacity:1" />
<stop  offset="1"  style="stop-color:#4D4D4D;stop-opacity:1" />
</radialGradient>
<path style="fill:url(#RadialGradID_1) " d="M-4.85,-126.45Q-0.7 -121.15 2.2 -115.4L2.8 -114.2Q-0.6 -120.55 -4.85 -126.45M-68.2,-77.9L-70.35 -76.55L-72.1 -75.3L-93.5 -55.65Q-102.5 -44.5 -106.75 -36.45Q-111.05 -28.45 -111 -28.05Q-110.95 -27.55 -112.45 -24L-112.85 -23.15L-113.05 -22.85L-116.3 -20.3L-116.9 -20.15L-117.4 -20.1L-117.5 -20.1L-118.95 -20.3L-120.35 -21Q-123.1 -22.8 -126.75 -28L-127.3 -28.75Q-133.25 -37.85 -136.75 -50.35Q-139.65 -60.75 -137.75 -69.4Q-134.15 -75.1 -127.65 -77.45Q-111.55 -83.65 -94.2 -83.6Q-87.65 -83.9 -81.05 -83.6L-81 -83.6Q-78.55 -91.15 -75.45 -98.45Q-69.4 -113.65 -60.5 -127.35Q-56.55 -133.45 -51.1 -139.05Q-45.7 -144.65 -38.55 -146.8L-33.05 -147.05Q-31.3 -146.65 -29.5 -145.85Q-19.95 -141.7 -12.4 -134.45Q-4.5 -126.95 0.65 -117.1Q5.85 -107.3 9.3 -97.05L9.9 -95.3L10.7 -94.15L6.5 -94.7L1.9 -95.1Q-14.8 -96.95 -30.45 -93.3L-34.6 -91.6Q-46.45 -88.45 -57.45 -82.75L-60.75 -80.95L-68.2 -77.9" />
<path style="fill:#000000;fill-opacity:1" d="M-3.4,-133.75L-4.95 -134.9Q-11.7 -139.8 -19.55 -143.5L-22.65 -144.8Q-25.4 -145.85 -28.15 -146.5L-24.8 -144.7L-23.25 -143.7Q-13.55 -137.45 -6.3 -128.45L-4.85 -126.45Q-0.6 -120.55 2.8 -114.2Q7.95 -104.65 11.3 -94.05L11.45 -93.6L10.75 -94.1L10.7 -94.15L11.05 -92.8L11.15 -92.75L11.45 -92.4Q14.7 -89 19.25 -86.65Q21.6 -85.45 24 -85.15L29.15 -85.6Q35.6 -88 34.35 -94.55Q33.5 -96.6 32.25 -98.45L30.95 -100.25L30.55 -100.7Q26.7 -105.8 22.35 -110.45Q17.45 -115.9 12.15 -120.9Q4.8 -127.8 -3.4 -133.75M87.85,-56.55L86.3 -58.7Q73.65 -75.85 55.7 -87.15Q44.8 -94 32.8 -98.25Q35.4 -95.25 36.25 -91.45Q36.4 -88.05 34.15 -85.9Q31.95 -83.7 28.7 -83.35Q24.05 -83 20.05 -85.1L19.1 -85.65Q14.65 -88.35 11.3 -92.05L10.95 -92.5Q-1 -94.1 -13.2 -93.15Q-33.9 -91.45 -52.55 -82.6Q-71.25 -73.75 -85.55 -58.6Q-99.6 -43.5 -107.2 -24.5Q-114.75 -5.5 -114.6 15.2Q-114.3 36.15 -106.2 55.3Q-98.05 74.45 -83 89.1Q-67.65 103.7 -48.2 111.55Q-29.4 119.15 -9 119.75L-11.05 118.3Q-14.05 115.9 -17.75 114.9Q-19.9 114.9 -19 117.15L-19.7 116.65L-20.55 115.4Q-21.45 113.15 -19.3 113.05Q-15.45 114.05 -12.25 116.6L-0.15 125.8Q5.8 130.35 12.15 134.3Q24.7 142.6 40.45 146.55Q50.15 149 58.95 146.3Q64.45 144.65 69.55 140.95Q77.2 134.55 80.15 124.95Q82.85 115.1 86.85 105.65Q88.3 102.2 90.45 99.2L84.7 100.85Q81.85 105.4 79.6 110.25Q76.3 117.05 72 123.25Q67.7 129.5 61.15 133.3Q53.8 137.05 45.7 135.7Q36.05 133.95 28.1 127.85Q20.2 121.8 14.3 114.2Q8.05 106.5 3.9 97.5Q0.5 90.65 -0.2 83.1Q-10.6 88 -9.95 99.6L-10.65 99.1L-11.5 97.9Q-12.2 85.1 0 80.55Q5.25 78.75 10.75 79.4Q14.2 79.75 17.15 81.35Q18.95 82.3 20.55 83.65L21.65 84.95Q21.95 85.5 21.45 85.1Q17.15 81.5 11.45 81.1Q6.95 80.75 2.9 81.95L2.45 82.1L5.25 84.75Q9.4 88.4 14.05 91.3Q29 100.55 46.5 102.45Q69.8 104.35 91.85 96.3L95.7 94.95Q111.45 88.95 124.55 78.2L129.1 74.2Q135.6 68 140.8 60.5L143.1 56.95Q150.7 44.7 152.7 30.5Q154.35 20.55 150.75 11.25Q149.9 9.35 148.7 7.75Q146.8 5.2 144.05 3.35Q140.1 0.7 135.6 -0.45L134.4 -0.75L133.95 -0.8L132.8 -1L131.75 -1.15L129.65 -1.3Q118.95 -2 109.45 3.8L108 4.7L108 4.75L106.35 5.9Q104.1 7.5 102.1 9.35L100.6 10.8L99.7 11.7L98.45 13L97.65 13.9L96.6 15.15L93.9 18.75Q92.85 20.25 91.95 21.85Q87.6 28.8 84.75 36.5L84.15 35.95L84.05 35.85L83.95 35.75Q83.2 35.15 83.25 34.7Q84.85 30.4 86.85 26.3Q88.35 23.3 90.15 20.4Q91.4 18.3 92.8 16.3Q93.95 14.65 95.25 13.1L97.15 10.95L97.9 10.1L99.2 8.8Q101.3 6.7 103.75 4.85L104.15 4.5Q105.95 3.1 107.85 2L107.5 -2.6L108.95 -2.3L109.3 1.15Q113.75 -1.3 118.8 -2.5L130.95 -2.95L132.75 -2.6L133.7 -2.4L136.3 -1.6Q139.45 -0.45 142.5 1.4Q151 7.1 153.65 16.9Q155.9 27.25 153.35 37.55Q149.85 52.1 141.05 64.15Q132.2 76.2 120.05 84.7Q108.1 92.9 94.65 97.75Q89.8 103.05 87.15 110.1Q83.95 119.35 81.05 128.65Q77.6 138.15 69.4 144Q58.9 150.65 46.45 149.1Q36.8 147.9 27.8 143.85Q18.85 139.8 10.8 134.4Q5.05 130.65 -0.35 126.45Q-0.85 126.05 -1.3 125.7L-5.45 125.75L-6.5 126.85Q-9.25 130 -12.5 132.7Q-19.7 139 -28.9 141.25Q-38.75 143.15 -47.4 138.15Q-56.9 132.2 -62.25 122.45Q-69.25 124.4 -76.45 124.9Q-90.5 126.5 -102.65 119.8Q-106.65 117.1 -109.55 113.65Q-112.9 111.1 -114.95 107.15Q-118.75 100.2 -120.15 92.35Q-123.25 77.95 -120.1 64Q-127.75 58.95 -134.7 53.1Q-141.2 47.8 -146.5 41.3Q-151 36.15 -153 29.65Q-155.1 26.5 -154.55 22.5Q-153.85 15.65 -151.35 9.2Q-148.3 0.85 -143.8 -6.75Q-139.7 -14.1 -133.95 -20.75L-131 -23.8L-135 -33.8Q-137.8 -41.35 -139.65 -49.15Q-141.45 -56.3 -141.2 -63.65Q-141.1 -69.15 -137.85 -73.35L-138.1 -73.65Q-129.6 -81.55 -119.25 -86.8Q-102.7 -95.3 -84.75 -100.45L-75.9 -102.9L-72 -111.5Q-65.15 -126.9 -53.9 -139.45Q-49.05 -144.8 -42.45 -147.8Q-39.8 -148.8 -37.05 -148.95L-37.4 -149.35L-31.5 -148.75Q-23.05 -146.9 -15.4 -142.55Q-7.75 -138.15 -1 -132.8Q12.9 -121.95 24.5 -108.6Q28.2 -104.5 31.5 -100.05Q53.75 -92.15 71.65 -75.65Q80.95 -66.95 88.15 -56.7L87.85 -56.55M71.9,-73.1L72.85 -71.45L73.2 -70.7Q70.4 -74.7 66.75 -75.75Q63.05 -76.85 59.9 -75.35Q56.85 -73.95 55.25 -70.4Q53.65 -66.85 55 -61.65L54.6 -62.4Q53.2 -65.4 53.05 -68.25Q52.95 -70 53.3 -71.65Q54.3 -76.1 58.1 -78.15Q62.05 -80 66.2 -78.1Q69.6 -76.55 71.9 -73.1M9.9,-95.3L9.3 -97.05Q5.85 -107.3 0.65 -117.1Q-4.5 -126.95 -12.4 -134.45Q-19.95 -141.7 -29.5 -145.85Q-31.3 -146.65 -33.05 -147.05L-38.55 -146.8Q-45.7 -144.65 -51.1 -139.05Q-56.55 -133.45 -60.5 -127.35Q-69.4 -113.65 -75.45 -98.45Q-78.55 -91.15 -81 -83.6L-81.05 -83.6Q-87.65 -83.9 -94.2 -83.6Q-111.55 -83.65 -127.65 -77.45Q-134.15 -75.1 -137.75 -69.4L-137.85 -69.3Q-140.35 -63.25 -139.55 -56.75Q-137.7 -41.05 -131.3 -26.55Q-128.1 -18.6 -124.2 -10.95L-124.15 -10.75Q-132.85 -4.45 -140 3.55Q-145.8 9.8 -149.5 17.45Q-152.9 24.15 -151.45 31.4Q-149 38.8 -143.45 44.3Q-137.45 50.55 -130.5 55.7Q-122.6 61.8 -113.95 66.85Q-112.8 67.55 -112.5 68.65Q-114.15 73.7 -115 78.9Q-117.15 89.95 -114.95 101Q-112.9 111.4 -104.5 117.7Q-96.35 122.7 -86.7 123.1Q-74.75 123.85 -63.25 120.5Q-62.3 120.95 -61.75 122.15Q-59.75 126.15 -56.75 129.55Q-50.75 136.7 -41.8 139.25Q-31.35 141.4 -21.95 136.25Q-14.95 132.45 -9.5 126.65L-5.4 122.45L-6.55 121.6L-12.2 121.4Q-32.75 119.9 -51.35 111.4Q-69.95 102.9 -84.45 88.25Q-98.7 73.7 -107 55.3Q-115.25 36.9 -116.1 16.45Q-116.75 -4.1 -109.9 -23.2Q-103.05 -42.35 -89.5 -57.8Q-76.95 -71.85 -60.75 -80.95L-57.45 -82.75Q-46.45 -88.45 -34.6 -91.6Q-26.75 -93.7 -18.55 -94.65Q-8.35 -95.8 1.9 -95.1L6.5 -94.7L10.7 -94.15L9.9 -95.3M-10.75,-33.1Q-15.85 -39.9 -15.6 -47.3Q-15.35 -54.7 -9.8 -59.3Q-6.5 -61.75 -2.7 -62.3L3.2 -62.1Q10.45 -60.65 15.85 -54.05L16.65 -53Q11.3 -57.7 4.75 -57.8Q-1.8 -57.85 -6.4 -54.4Q-10.35 -51.4 -11.55 -45.45Q-12.75 -39.5 -9.85 -32.05L-10.25 -32.5L-10.75 -33.1M64.5,16.55L63.1 16.85L63 16.85L59.75 16.35L59.65 16.3L59.5 16.25L59.4 16.2L59.25 16.15L59 16.05L58.75 15.95Q54.6 14.1 51.2 9.4L51.1 9.25L53.8 11.7Q55.95 13.85 58.35 14.95Q60.2 15.75 61.85 15.8L62.65 15.75Q63.95 15.6 65.05 14.9Q67.65 12.9 67.35 8.65Q67.1 5.25 65.1 1.7L63 -2.1L64.65 -0.05Q67.9 4.75 68.25 9.25L68.3 10.1L66.9 14.8L65.8 15.85L64.5 16.55M90.55,-52.45L90.9 -52.65Q93.9 -48.05 96.5 -43.1Q106.1 -24.75 108.75 -4.05L108.8 -3.55L107.35 -3.75L106.35 -11.05L106.3 -11.5Q105.3 -24.75 99.1 -36.55L97.55 -39.6Q94.45 -46.25 90.55 -52.45M101.5,-5.7Q103.55 -7.8 101.95 -12.85L100.7 -16.65L100.25 -17.6L101.05 -16.15Q103 -12.1 103.1 -8.85L103.1 -8.8Q103.15 -7 102.65 -5.85L102.55 -5.65L102.3 -5.3L101.5 -5.7M100.75,-5.25L101.7 -4.75L101.45 -4.6Q97.15 -3.45 92.5 -11.85L92.4 -12.05Q93.9 -9.65 95.35 -8.2Q97 -6.2 98.65 -5.5Q99.3 -4.75 100.1 -5.15L100.2 -5.2L100.75 -5.25M-82.4,-85.85L-81.6 -88.2L-76.95 -100.4Q-90.65 -96.75 -103.8 -91.4Q-114.75 -87.35 -124.3 -81.1L-123.9 -81.25Q-107.8 -85.75 -91 -85.55L-82.8 -85.45Q-82.4 -85.35 -82.4 -85.85M-125.75,-12.55L-126.1 -13.25Q-128.1 -17.2 -129.9 -21.25Q-141.65 -9.35 -147.95 6.35Q-150.15 11.3 -151.5 16.5L-150.1 13.65Q-145.5 5.4 -138.8 -1.2Q-133.75 -6.35 -128.1 -10.8L-125.8 -12.55Q-125.55 -12.4 -125.75 -12.55M-114.3,67.65L-118.4 65.1Q-121.45 77.8 -119.1 91Q-118.1 98.45 -115.15 105.35Q-113.85 108.95 -111.25 111.4Q-112.95 108.95 -114.15 106.15Q-117.7 97.75 -117.6 88.45Q-117.55 77.75 -114.3 67.65M-3.6,123.85L-3.65 123.9L-3.55 123.9L-3.6 123.85M116,62.9L116.1 63.75L115.35 62.95Q114.15 57.15 117.1 52.05Q119.1 48.95 122.75 48.55Q125.75 48.85 126.85 51.75Q127.6 54.55 125.2 56.3Q122.15 58 119.2 59.95L118.8 59.6L118.5 59.1Q119.7 57.95 121.2 57.2L122.35 56.7L123.75 55.95Q126.15 54.6 126.35 52Q125.25 48.3 121.55 49.8Q117.6 51.65 116.5 55.7Q115.8 58.25 115.85 60.8L116 62.9M70.15,121.85L70.25 121.7Q74.45 115.8 77.65 109.25Q79.45 105.35 81.6 101.65Q73.95 103.6 66.3 104.3L66.15 104.5L56.25 112.55Q47.7 109.85 39 111.2Q35.65 108.3 31.55 106.1Q26.1 103.2 19.7 102.25Q13.4 101.25 7.6 103.6L8.2 104.65L8.55 105.3Q10.45 108.45 12.6 111.4Q17.6 118.35 24.35 124.15Q31.05 129.9 39.3 132.7Q48.2 135.75 57 132.65Q64.45 129.45 69.3 122.95L70.05 122L70.15 121.85" />
<path style="fill:#F9F9F9;fill-opacity:1" d="M12.15,-120.9Q19.5 -113.5 24.85 -106.85L29.6 -100.7L30.85 -98.95Q32.7 -96.25 33.4 -94.65Q33.9 -92.85 33.25 -91.2Q32.7 -89.9 31.35 -88.65Q28.35 -85.95 24.85 -86.6Q25.4 -86.6 27.05 -88.7Q27.65 -89.45 27.75 -90.75L26.8 -96.5L26.8 -96.6L26.75 -96.8L26.7 -97L26.55 -97.4L26.4 -97.85L25.65 -99.65L25.15 -100.7L24.2 -102.35Q20.5 -108.65 11.9 -118.35Q3.55 -127.5 -3.4 -133.75Q4.8 -127.8 12.15 -120.9" />
<radialGradient
id="RadialGradID_2" gradientUnits="userSpaceOnUse" gradientTransform="matrix(0.0533142, -0.00160217, 0.00160217, 0.0533142, 63.5, -80.4)" spreadMethod ="pad" cx="0" cy="0" r="819.2" fx="0" fy="0" >
<stop  offset="0"  style="stop-color:#F6F6F6;stop-opacity:1" />
<stop  offset="1"  style="stop-color:#E9E9E9;stop-opacity:1" />
</radialGradient>
<path style="fill:url(#RadialGradID_2) " d="M101.4,4.1L101.5 4.05Q105.55 3.15 107.5 -0.3Q107.55 -0.8 106.8 -1.4L105.95 -2.15Q105.25 -0.9 104.3 0.05Q105.15 -1.4 105.55 -3.15L106.15 -2.95L107.5 -2.6L107.85 2Q105.95 3.1 104.15 4.5L103.75 4.85L101.4 4.1M83.95,35.75L84.05 35.85Q83.9 36.85 81.6 42.35Q78.8 48.95 67.9 60.9Q54.75 73.45 38.75 77.9Q24.9 81.75 17.15 81.35Q14.2 79.75 10.75 79.4Q5.25 78.75 0 80.55Q-12.2 85.1 -11.5 97.9L-10.65 99.1L-10.65 100.1Q-10.35 105.95 -16.15 107.85L-17.35 107.55L-30.8 102.8L-31.9 102.3Q-55.7 90 -70.25 67.65L-71.9 65.05L-85.75 21.55L-85.75 21.15L-85.9 19.5L-85.95 18.65L-86 17.75L-86.05 16.85L-76.95 -27.85L-74 -33.6Q-61.45 -56.4 -39.5 -70.25Q-17.55 -84.15 10.15 -85.3L12.8 -85.35L20.05 -85.1Q24.05 -83 28.7 -83.35Q31.95 -83.7 34.15 -85.9Q36.4 -88.05 36.25 -91.45Q35.4 -95.25 32.8 -98.25Q44.8 -94 55.7 -87.15Q73.65 -75.85 86.3 -58.7L87.85 -56.55L85.9 -55.45Q80.15 -61.95 71.9 -64.1L68.3 -63.9Q65.25 -64.2 62.65 -62.95Q56.55 -59.05 57.55 -47.35Q58.55 -36.05 65.85 -22.5Q52.85 -37.5 32.75 -40.85L27.1 -41.35Q21.05 -42.5 16.05 -40.85Q2.9 -38.95 -8.1 -30.9Q-25.8 -17.95 -30 5Q-33.2 27.4 -20.05 45.85Q-6.5 63.95 15.85 67.7Q38.25 70.95 56.7 57.8L60.55 54.7Q66.55 53.25 70.75 50.55Q80.85 44.05 83.95 35.75M91.95,21.85Q92.85 20.25 93.9 18.75L96.6 15.15L96.95 15L91.95 21.85M54.6,-62.4L55 -61.65Q53.65 -66.85 55.25 -70.4Q56.85 -73.95 59.9 -75.35Q63.05 -76.85 66.75 -75.75Q70.4 -74.7 73.2 -70.7L72.85 -71.45L71.9 -73.1Q70.8 -75.85 67.55 -78.15Q64.1 -80.6 60.95 -80.45Q56.65 -80 54.05 -75.6Q52.35 -72.75 53.05 -68.25Q53.2 -65.4 54.6 -62.4M-11.25,-60.7Q-17.65 -57.45 -19.3 -52.7Q-21.1 -46.75 -18.05 -40.85Q-14.95 -34.95 -9.9 -32.05L-10.25 -32.5L-9.85 -32.05Q-12.75 -39.5 -11.55 -45.45Q-10.35 -51.4 -6.4 -54.4Q-1.8 -57.85 4.75 -57.8Q11.3 -57.7 16.65 -53L15.85 -54.05Q10.45 -60.65 3.2 -62.1L-2.7 -62.3Q-7.5 -62.6 -11.25 -60.7M78.45,4L77.6 0L80.3 3.2L78.45 4M-19.85,-11.95Q-21.9 -8.2 -23.35 -4Q-17.45 -17.75 -5.25 -26.1Q0.05 -29.7 6 -31.8Q3.1 -25.7 4.05 -16.85L4.2 -15.8Q-0.1 -19.35 -5.6 -19.55Q-13.75 -19.25 -19.15 -11.6Q-21.05 -8.95 -22.3 -5.85L-23.35 -4L-23.55 -3.55L-23.55 -3.65L-23.65 -3.35L-23.95 -2.7Q-22.3 -7.65 -19.85 -11.95M52.35,56Q36 66.6 16.45 63.8Q-4.25 60.35 -16.85 43.5Q-29.05 26.4 -26.05 5.6L-25.85 4.55L-26.1 8.25L-25.8 12.25Q-24.65 26.6 -14.85 36.4Q-4.15 47.15 12 47.55Q25.1 47.3 34.9 39.85Q38.85 36.8 41.8 33.05Q55.1 38.4 64.25 32.05L64.85 31.6Q62.95 34.2 60.5 36.45Q56.05 40.55 50.1 41.65L50.7 42.6Q51.1 43.4 51.6 43.5Q41.6 46.8 29.5 47.5Q15.9 49.2 17.8 51.8Q19.7 54.4 32.9 55.9L42.65 56.4Q34.1 59.7 24 59.95Q3.15 59.45 -10.9 45.75Q-24.9 32.1 -26 11.35L-26 12.8Q-25.45 34.05 -11.35 48.15Q2.75 62.25 24 62.8Q37.95 62.45 48.8 56.25L52.35 56M72,12.8Q71.8 8.95 70.8 5.15Q69.65 -0.4 67.1 -5.75Q63.6 -13.1 58.9 -19.25Q70.95 -6.75 72.6 11.2L72 12.8M74,8.4Q72.7 -7.45 63.55 -19.05L65.45 -16.65Q73.35 -5.55 74.9 7.1L74 8.4M83.4,2.6Q80.1 -0.7 77.45 -4.95L75.8 -8.1L77.7 -6.1L79.35 -3.55Q81.65 -0.2 84.55 2.45L83.4 2.6M79.3,-4.45L83.85 -0.65Q86.2 1.1 88.4 2.25L85.85 2.35Q82.2 -0.55 79.3 -4.45M107.35,-3.75L105.8 -4.15Q106.5 -7.7 106.35 -11.05L107.35 -3.75M97.55,-39.6Q93.95 -46.1 89.2 -51.7L90.55 -52.45Q94.45 -46.25 97.55 -39.6M16.65,12.7Q27.85 27.1 40.85 32.65Q38.1 35.65 34.65 38.1Q25.2 44.85 12.8 45.05Q-3.3 44.65 -14 33.9Q-18.55 29.35 -21.2 23.85L-20.5 24.7L-19.15 26.85Q-13.75 34.5 -5.6 34.8Q2.6 34.5 8 26.8Q13.3 19.4 13.65 8.35L16.65 12.7" />
<path style="fill:#C1C1C1;fill-opacity:1" d="M24.85,-86.6Q25.35 -86.65 27 -88.7Q27.6 -89.45 27.75 -90.75Q27.65 -89.45 27.05 -88.7Q25.4 -86.6 24.85 -86.6M88.4,2.25Q90.9 3.5 93.2 3.95Q97.15 5.25 101.4 4.1L103.75 4.85Q101.3 6.7 99.2 8.8Q96.25 8.1 93.4 6.85Q89.3 5.05 85.85 2.35L88.4 2.25M83.4,2.6L84.55 2.45Q88.6 6.15 93.75 8.5Q95.8 9.45 97.9 10.1L97.15 10.95Q89.25 8.35 83.4 2.6M70.75,50.55Q66.55 53.25 60.55 54.7Q75.25 41.75 78.6 21.9Q79.95 12.6 78.45 4L80.3 3.2Q86.6 9.95 95.25 13.1Q93.95 14.65 92.8 16.3Q91.4 18.3 90.15 20.4Q88.35 23.3 86.85 26.3Q84.85 30.4 83.25 34.7Q83.2 35.15 83.95 35.75Q80.85 44.05 70.75 50.55M96.95,15L96.6 15.15L97.65 13.9L97.75 13.95L96.95 15M22.45,86.55Q22.9 87.55 22.65 88Q22.25 88.65 20.3 88.25Q16.35 88.1 23.95 93.8Q31.55 99.5 55.85 101Q74.5 101.35 95.45 93.5L98.1 92.45L100.15 91.65L101.85 90.9L129.1 74.2L124.55 78.2Q111.45 88.95 95.7 94.95L91.85 96.3Q69.8 104.35 46.5 102.45Q29 100.55 14.05 91.3Q9.4 88.4 5.25 84.75L2.45 82.1L2.9 81.95Q6.95 80.75 11.45 81.1Q17.15 81.5 21.45 85.1L22.45 86.55M-14.55,108.2Q-10.4 108.9 -6.95 111.25L-6 111.9L3 120.55L4.65 122.35L5.25 123.05L5.4 123.25L6.85 124.7L16.6 133.4L30.85 142L36.45 144.35L42.5 146.1L58.95 146.3Q50.15 149 40.45 146.55Q24.7 142.6 12.15 134.3Q5.8 130.35 -0.15 125.8L-12.25 116.6Q-15.45 114.05 -19.3 113.05Q-21.45 113.15 -20.55 115.4L-19.7 116.65L-19 117.15Q-19.9 114.9 -17.75 114.9Q-14.05 115.9 -11.05 118.3L-9 119.75Q-29.4 119.15 -48.2 111.55Q-67.65 103.7 -83 89.1Q-98.05 74.45 -106.2 55.3Q-114.3 36.15 -114.6 15.2Q-114.75 -5.5 -107.2 -24.5Q-99.6 -43.5 -85.55 -58.6Q-71.25 -73.75 -52.55 -82.6Q-33.9 -91.45 -13.2 -93.15Q-1 -94.1 10.95 -92.5L11.3 -92.05Q14.65 -88.35 19.1 -85.65L20.05 -85.1L12.8 -85.35L10.15 -85.35Q-17.55 -84.2 -39.5 -70.3Q-61.5 -56.4 -74.05 -33.65L-76.95 -27.85L-86.05 16.85L-86 17.75L-85.95 18.65L-85.9 19.5L-85.75 21.15L-85.75 21.55L-71.9 65.05L-70.3 67.65Q-55.7 90 -31.95 102.3L-30.8 102.8L-17.35 107.55L-16.15 107.85L-14.55 108.2M66.2,-78.1Q62.05 -80 58.1 -78.15Q54.3 -76.1 53.3 -71.65Q52.95 -70 53.05 -68.25Q52.35 -72.75 54.05 -75.6Q56.65 -80 60.95 -80.45Q64.1 -80.6 67.55 -78.15Q70.8 -75.85 71.9 -73.1Q69.6 -76.55 66.2 -78.1M-2.7,-62.3Q-6.5 -61.75 -9.8 -59.3Q-15.35 -54.7 -15.6 -47.3Q-15.85 -39.9 -10.75 -33.1L-10.25 -32.5L-9.9 -32.05Q-14.95 -34.95 -18.05 -40.85Q-21.1 -46.75 -19.3 -52.7Q-17.65 -57.45 -11.25 -60.7Q-7.5 -62.6 -2.7 -62.3M32.9,55.9Q19.7 54.4 17.8 51.8Q15.9 49.2 29.5 47.5Q41.6 46.8 51.6 43.5L51.65 43.5Q57.85 42.3 62.35 38Q66.85 33.7 69.35 28.05Q72.35 20.4 72 12.8L72.6 11.2L72.8 15.35Q72.8 19.3 72.25 23.1Q68.75 36.15 58.9 45.75Q51.7 52.8 42.65 56.4L32.9 55.9M48.8,56.25Q54.5 53 59.4 48.15Q70.5 37.05 73.2 21.6Q74.15 16.85 74.15 11.75L74 8.4L74.9 7.1Q75.7 13.95 74.65 21.25Q71.2 42 54.4 54.6L52.35 56L48.8 56.25M-70.35,-76.55L-68.2 -77.9L-70.3 -76.55L-72.1 -75.3L-70.35 -76.55M-3.55,123.9L-3.65 123.9L-3.6 123.85L-3.55 123.9" />
<path style="fill:#4A4A4A;fill-opacity:1" d="M70.1,-16.9L68.65 -19L65.85 -22.5Q58.55 -36.05 57.55 -47.35Q56.55 -59.05 62.65 -62.95Q65.25 -64.2 68.3 -63.9Q63.65 -62.85 61.75 -57.35Q59.2 -46.6 62.85 -36.05Q65.35 -27.6 69.6 -20L70.1 -16.9M27.1,-41.35L16.05 -40.85Q21.05 -42.5 27.1 -41.35M6,-31.8L10.5 -33.15L9.05 -30.2Q5.95 -20.55 8.65 -10.7L8.65 -10.65L8 -11.6Q6.25 -14.1 4.2 -15.8L4.05 -16.85Q3.1 -25.7 6 -31.8M41.8,33.05L42.6 32Q48.7 34.55 55.65 34.65Q60.55 34.4 64.6 31.55L65.2 31.05L64.85 31.6L64.25 32.05Q55.1 38.4 41.8 33.05M73.75,-13.3L74.25 -12.6L74.95 -11.6L75.1 -11.15Q76.25 -8.45 77.7 -6.1L75.8 -8.1Q74.6 -10.7 73.75 -13.3M88.4,2.25Q86.2 1.1 83.85 -0.65L79.3 -4.45L79 -4.9L77 -8.85Q81.9 -2.7 88.5 1.7L89.3 2.25Q90.95 3.25 92.75 3.8L93.2 3.95Q90.9 3.5 88.4 2.25M18.35,10.5Q25.2 20.4 34.65 27.25Q38.05 29.9 41.75 31.6L40.85 32.65Q27.85 27.1 16.65 12.7L13.65 8.35L13.65 7.6Q13.6 4.55 13.2 1.75Q15.4 6.25 18.35 10.5" />
<path style="fill:#E7E7E7;fill-opacity:1" d="M71.9,-64.1Q80.15 -61.95 85.9 -55.45L85.7 -55.35L85.45 -55.15L84.3 -56.3Q81.55 -58.8 78 -60.75Q74.4 -62.75 70.55 -62.35Q66.45 -61.55 64.55 -58.2Q62.65 -54.85 62.4 -50.95Q61.85 -38.25 67.15 -26.55L69.45 -21.4L69.6 -20Q65.35 -27.6 62.85 -36.05Q59.2 -46.6 61.75 -57.35Q63.65 -62.85 68.3 -63.9L71.9 -64.1M8.65,-10.7Q5.95 -20.55 9.05 -30.2L10.5 -33.15L13.95 -33.85Q11.05 -30.85 10.05 -26.3Q7.95 -17 10.45 -8.1L11 -6.25L8.7 -10.6L8.65 -10.65L8.65 -10.7M65.2,31.05L64.6 31.55Q60.55 34.4 55.65 34.65Q48.7 34.55 42.6 32L43.3 31Q50.3 33.75 57.75 32.25Q67.8 28.7 69.7 18.05L70 18.3L70.3 16.1L70.05 15.75Q70.5 9.5 69.2 3.45Q68.25 0 66.6 -3.45Q66.65 -3.75 67.1 -3.3L67.25 -3.15L67.05 -3.65Q63.35 -13.15 57.2 -20.8L57.15 -20.9L56.25 -21.85L58.15 -20.05L58.9 -19.25Q63.6 -13.1 67.1 -5.75Q69.65 -0.4 70.8 5.15Q71.8 8.95 72 12.8Q72.35 20.4 69.35 28.05Q66.85 33.7 62.35 38Q57.85 42.3 51.65 43.5L51.6 43.5Q51.1 43.4 50.7 42.6L50.1 41.65Q56.05 40.55 60.5 36.45Q62.95 34.2 64.85 31.6L65.2 31.05M74.25,-12.6L73.75 -13.3L73.35 -14.65L74.4 -13.1L74.95 -11.6L74.25 -12.6M104.3,0.05Q105.25 -0.9 105.95 -2.15L106.8 -1.4Q107.55 -0.8 107.5 -0.3Q105.55 3.15 101.5 4.05L101.4 4.1Q97.15 5.25 93.2 3.95L92.75 3.8Q90.95 3.25 89.3 2.25L88.5 1.7Q81.9 -2.7 77 -8.85L76.85 -9.2L76.4 -10.35Q78.8 -7.3 81.6 -4.45Q84.55 -1.55 88.4 0.7L89.9 1.45L89.85 1.35L92.25 2.3L93.1 2.45L94.55 2.65L96.55 2.6Q96.75 2.6 96.95 2.75L99.7 2.3L99.35 1.65Q102.45 -0.4 103.65 -3.85L105.55 -3.15Q105.15 -1.4 104.3 0.05M97.55,-39.6L99.1 -36.55Q105.3 -24.75 106.3 -11.5L106.35 -11.05Q106.5 -7.7 105.8 -4.15L103.9 -4.7Q104.7 -6.3 104.7 -8.75L104.75 -12.75Q103.95 -25.5 98.15 -36.9Q94.55 -44.95 88.9 -51.5L89.2 -51.7Q93.95 -46.1 97.55 -39.6M13.2,1.75L12.4 -2.05Q15.65 6.55 21.55 14.2Q29.45 24.45 40.8 29.85L42.55 30.65L41.75 31.6Q38.05 29.9 34.65 27.25Q25.2 20.4 18.35 10.5Q15.4 6.25 13.2 1.75" />
<path style="fill:#FFFFFF;fill-opacity:1" d="M132.75,-2.6L130.95 -2.95Q133.45 -6.4 135.05 -10.6Q139.75 -22.9 134.8 -36.5L135.2 -35.6Q140.6 -21.8 136 -9.2Q134.7 -5.65 132.75 -2.6M85.85,2.35Q89.3 5.05 93.4 6.85Q96.25 8.1 99.2 8.8L97.9 10.1Q95.8 9.45 93.75 8.5Q88.6 6.15 84.55 2.45Q81.65 -0.2 79.35 -3.55L77.7 -6.1Q76.25 -8.45 75.1 -11.15L74.95 -11.6L74.4 -13.1L73.35 -14.65Q71 -23.1 72.7 -31.7L72.85 -32.35Q75.75 -45.5 87.1 -53.1L87.35 -53.25L87.7 -53.45L89.35 -54.35L89.65 -54.5Q99.55 -59.5 110.95 -56.95Q118.15 -55.1 123.8 -50.8Q126.45 -48.7 128.85 -45.95L129.5 -45.35L129.55 -45.3L129.7 -45.15L129.85 -44.95Q131.7 -43.1 133.15 -40.4L133.2 -40.3L134.05 -38.55L135.1 -35.4Q138.05 -26.15 134.9 -17.6Q131.4 -8.05 121.9 -3.75Q115.4 -1.15 108.95 -2.3L107.5 -2.6L106.15 -2.95L105.55 -3.15L103.65 -3.85Q102.45 -0.4 99.35 1.65L99.7 2.3L96.95 2.75Q96.75 2.6 96.55 2.6L94.55 2.65L93.1 2.45L92.25 2.3L89.85 1.35L89.9 1.45L88.4 0.7Q84.55 -1.55 81.6 -4.45Q78.8 -7.3 76.4 -10.35L76.85 -9.2L77 -8.85L79 -4.9L79.3 -4.45Q82.2 -0.55 85.85 2.35M69.45,-21.4L67.15 -26.55Q61.85 -38.25 62.4 -50.95Q62.65 -54.85 64.55 -58.2Q66.45 -61.55 70.55 -62.35Q74.4 -62.75 78 -60.75Q81.55 -58.8 84.3 -56.3L85.45 -55.15Q73.05 -46.75 70.15 -32.3Q69.05 -26.85 69.45 -21.4M6,-31.8Q0.05 -29.7 -5.25 -26.1Q-17.45 -17.75 -23.35 -4Q-21.9 -8.2 -19.85 -11.95Q-14.65 -21.2 -5.75 -27.7Q10.7 -39.7 32.15 -36.95Q51.3 -33.7 63.55 -19.05Q72.7 -7.45 74 8.4L74.15 11.75Q74.15 16.85 73.2 21.6Q70.5 37.05 59.4 48.15Q54.5 53 48.8 56.25Q37.95 62.45 24 62.8Q2.75 62.25 -11.35 48.15Q-25.45 34.05 -26 12.8L-26 11.35Q-24.9 32.1 -10.9 45.75Q3.15 59.45 24 59.95Q34.1 59.7 42.65 56.4Q51.7 52.8 58.9 45.75Q68.75 36.15 72.25 23.1Q72.8 19.3 72.8 15.35L72.6 11.2Q70.95 -6.75 58.9 -19.25L58.15 -20.05L56.25 -21.85L57.15 -20.9L57.2 -20.8Q63.35 -13.15 67.05 -3.65L67.25 -3.15L67.1 -3.3Q66.65 -3.75 66.6 -3.45Q68.25 0 69.2 3.45Q70.5 9.5 70.05 15.75L70.3 16.1L70 18.3L69.7 18.05Q67.8 28.7 57.75 32.25Q50.3 33.75 43.3 31L42.6 32L41.8 33.05Q38.85 36.8 34.9 39.85Q25.1 47.3 12 47.55Q-4.15 47.15 -14.85 36.4Q-24.65 26.6 -25.8 12.25L-26.1 8.25L-25.85 4.55Q-25.35 0.55 -23.95 -2.7L-23.65 -3.35L-23.55 -3.65L-23.55 -3.55L-23.35 -4L-22.3 -5.85Q-21.05 -8.95 -19.15 -11.6Q-13.75 -19.25 -5.6 -19.55Q-0.1 -19.35 4.2 -15.8Q6.25 -14.1 8 -11.6L8.65 -10.65L8.7 -10.6L11 -6.25L10.45 -8.1Q7.95 -17 10.05 -26.3Q11.05 -30.85 13.95 -33.85L10.5 -33.15L6 -31.8M60.2,13.65Q60.25 13.1 60.7 12.65Q61.9 11.8 63.1 12.95L63.15 13Q64.15 14.4 63.15 15.5L62.65 15.75L61.85 15.8Q61.25 15.65 60.7 15.1Q60.15 14.35 60.2 13.65M57.1,-2.6Q58.5 1.9 54.7 3.95Q50.5 5.2 48.35 1Q46.95 -3.5 50.75 -5.55Q54.95 -6.8 57.1 -2.6M41.2,-4.45Q41.5 1.7 45.85 8.35Q50.35 14.85 55.95 17.4Q61.55 20 65.7 17.45Q69.55 14.6 69.3 8.45Q69 2.3 64.65 -4.35Q60.1 -10.9 54.5 -13.45Q48.9 -16.05 44.8 -13.5Q40.9 -10.65 41.2 -4.45M102.3,-5.3L103.9 -4.7L105.8 -4.15L107.35 -3.75L108.8 -3.55Q114.75 -2.75 120.7 -5.15Q130.25 -9.45 133.75 -19Q135.25 -23.1 135.35 -27.35L135.1 -26.3L134.85 -24.9Q133.7 -18.6 128.9 -16.35Q123.95 -14.5 118.65 -18.1Q113.35 -21.65 110.1 -29.05Q107.1 -36.5 108.3 -42.8Q109.45 -49.05 114.25 -51.3Q119.2 -53.15 124.5 -49.6Q126.3 -48.4 127.85 -46.7L128.65 -46.1Q121.55 -53.1 112.3 -55.35Q102.75 -57.7 93.25 -53.85L90.9 -52.65L90.55 -52.45L89.2 -51.7L88.9 -51.5Q94.55 -44.95 98.15 -36.9Q103.95 -25.5 104.75 -12.75L104.7 -8.75L104.65 -9.35Q104.5 -14.35 101.5 -20.5Q98.4 -26.55 94.5 -29.7Q90.65 -32.85 87.8 -31.6Q85.05 -30.05 85.25 -25.1Q85.4 -20.1 88.4 -13.95Q91.55 -7.85 95.4 -4.7Q99.3 -1.55 102.15 -2.8L103.45 -3.95L101.75 -4.7L101.7 -4.75L100.75 -5.25L100.45 -5.45L100.2 -5.2L100.1 -5.15Q99.3 -4.75 98.65 -5.5L98.4 -5.8Q98.05 -6.45 98.2 -6.9L98.2 -6.95Q95.3 -9.1 92.85 -12.15Q95.4 -9.35 98.4 -7.4L98.6 -7.6Q99.55 -8.05 100.35 -6.95L100.6 -6.1L101.5 -5.7L102.3 -5.3M96,-20.15Q97.55 -17.2 95.5 -15.55Q93.1 -14.45 91.15 -17.15Q89.6 -20.1 91.65 -21.75Q94.05 -22.85 96 -20.15M41.75,31.6L42.55 30.65L40.8 29.85Q29.45 24.45 21.55 14.2Q15.65 6.55 12.4 -2.05L13.2 1.75Q13.6 4.55 13.65 7.6L13.65 8.35Q13.3 19.4 8 26.8Q2.6 34.5 -5.6 34.8Q-13.75 34.5 -19.15 26.85L-20.5 24.7L-21.2 23.85Q-18.55 29.35 -14 33.9Q-3.3 44.65 12.8 45.05Q25.2 44.85 34.65 38.1Q38.1 35.65 40.85 32.65L41.75 31.6" />
<path style="fill:#2B2B2B;fill-opacity:1" d="M97.15,10.95L95.25 13.1Q86.6 9.95 80.3 3.2L77.6 0L78.45 4Q79.95 12.6 78.6 21.9Q75.25 41.75 60.55 54.7L56.7 57.8Q38.25 70.95 15.85 67.7Q-6.5 63.95 -20.05 45.85Q-33.2 27.4 -30 5Q-25.8 -17.95 -8.1 -30.9Q2.9 -38.95 16.05 -40.85L27.1 -41.35L32.75 -40.85Q52.85 -37.5 65.85 -22.5L68.65 -19L70.1 -16.9L69.6 -20L69.45 -21.4Q69.05 -26.85 70.15 -32.3Q73.05 -46.75 85.45 -55.15L85.7 -55.35L85.9 -55.45L87.85 -56.55L88.15 -56.7Q99 -62.4 111.6 -59.5Q126.85 -55.6 135.55 -41.6Q143.55 -27.5 140.55 -12.9Q139.3 -6.7 136.3 -1.6L133.7 -2.4Q136.75 -7.35 138 -13.5Q140.7 -27.1 133.25 -40.25L133.2 -40.3L133.15 -40.4Q131.7 -43.1 129.85 -44.95L129.7 -45.15L129.55 -45.3L129.5 -45.35L129.35 -45.55Q126.8 -48.55 123.8 -50.8Q118.15 -55.1 110.95 -56.95Q99.55 -59.5 89.65 -54.5L89.35 -54.35L87.7 -53.45L87.35 -53.25L87.1 -53.1Q75.75 -45.5 72.85 -32.35L72.7 -31.7Q71 -23.1 73.35 -14.65L73.75 -13.3Q74.6 -10.7 75.8 -8.1L77.45 -4.95Q80.1 -0.7 83.4 2.6Q89.25 8.35 97.15 10.95M97.65,13.9L98.45 13L97.75 13.95L97.65 13.9M135.3,0L133.95 -0.8L134.4 -0.75L135.6 -0.45L135.3 0M-23.95,-2.7Q-25.35 0.55 -25.85 4.55L-26.05 5.6Q-29.05 26.4 -16.85 43.5Q-4.25 60.35 16.45 63.8Q36 66.6 52.35 56L54.4 54.6Q71.2 42 74.65 21.25Q75.7 13.95 74.9 7.1Q73.35 -5.55 65.45 -16.65L63.55 -19.05Q51.3 -33.7 32.15 -36.95Q10.7 -39.7 -5.75 -27.7Q-14.65 -21.2 -19.85 -11.95Q-22.3 -7.65 -23.95 -2.7" />
<path style="fill:#EAEAEA;fill-opacity:1" d="M51.2,9.4Q54.6 14.1 58.75 15.95L59 16.05L59.25 16.15L59.4 16.2L59.5 16.25L59.65 16.3L59.75 16.35L63 16.85L63.1 16.85L64.5 16.55L65.8 15.9L66.9 14.8L68.3 10.1L68.25 9.25Q67.9 4.75 64.65 -0.05L63 -2.1Q60.25 -5.2 57.1 -6.6Q53 -8.45 50.05 -6.55Q47.25 -4.4 47.6 0.1Q47.95 4.55 51.1 9.25L51.2 9.4M44.8,-13.5Q48.9 -16.05 54.5 -13.45Q60.1 -10.9 64.65 -4.35Q69 2.3 69.3 8.45Q69.55 14.6 65.7 17.45Q61.55 20 55.95 17.4Q50.35 14.85 45.85 8.35Q41.5 1.7 41.2 -4.45Q40.9 -10.65 44.8 -13.5M102.3,-5.3L102.55 -5.65L102.65 -5.85Q103.15 -7 103.1 -8.8L103.1 -8.85Q103 -12.1 101.05 -16.15L100.25 -17.6L100.7 -16.65Q96.2 -24.45 92.05 -23.35Q90.3 -22.35 90.4 -19.1Q90.5 -15.85 92.45 -11.8Q97.1 -3.4 101.45 -4.55L101.75 -4.7L103.45 -3.95L102.15 -2.8Q99.3 -1.55 95.4 -4.7Q91.55 -7.85 88.4 -13.95Q85.4 -20.1 85.25 -25.1Q85.05 -30.05 87.8 -31.6Q90.65 -32.85 94.5 -29.7Q98.4 -26.55 101.5 -20.5Q104.5 -14.35 104.65 -9.35L104.7 -8.75Q104.7 -6.3 103.9 -4.7L102.3 -5.3" />
<radialGradient
id="RadialGradID_3" gradientUnits="userSpaceOnUse" gradientTransform="matrix(0.0179749, -0.000534058, 0.000534058, 0.0179749, 57.8, 4.65)" spreadMethod ="pad" cx="0" cy="0" r="819.2" fx="0" fy="0" >
<stop  offset="0"  style="stop-color:#8D8D8D;stop-opacity:1" />
<stop  offset="1"  style="stop-color:#111111;stop-opacity:1" />
</radialGradient>
<path style="fill:url(#RadialGradID_3) " d="M65.1,1.7L63.95 -0.15L62.4 -2.1Q65.45 2.4 65.7 6.6Q66 10.8 63.4 12.8L63.1 12.95Q61.9 11.8 60.7 12.65Q60.25 13.1 60.2 13.65Q56.05 13.7 51.15 8.6L51.25 8.75Q52.45 10.4 53.8 11.7L51.1 9.25Q47.95 4.55 47.6 0.1Q47.25 -4.4 50.05 -6.55Q53 -8.45 57.1 -6.6Q60.25 -5.2 63 -2.1L65.1 1.7M65.8,15.85L66.9 14.8L65.8 15.9L64.5 16.55L65.8 15.85M50.75,-5.55Q46.95 -3.5 48.35 1Q50.5 5.2 54.7 3.95Q58.5 1.9 57.1 -2.6Q54.95 -6.8 50.75 -5.55" />
<path style="fill:#F2F2F2;fill-opacity:1" d="M60.7,15.1Q61.25 15.65 61.85 15.8Q60.2 15.75 58.35 14.95Q55.95 13.85 53.8 11.7Q52.45 10.4 51.25 8.75L51.15 8.6Q56.05 13.7 60.2 13.65Q60.15 14.35 60.7 15.1M63.1,12.95L63.4 12.8Q66 10.8 65.7 6.6Q65.45 2.4 62.4 -2.1L63.95 -0.15L65.1 1.7Q67.1 5.25 67.35 8.65Q67.65 12.9 65.05 14.9Q63.95 15.6 62.65 15.75L63.15 15.5Q64.15 14.4 63.15 13L63.1 12.95M101.5,-5.7L100.6 -6.1L100.35 -6.95Q103.4 -9.45 100 -17.35L100.7 -16L101.95 -12.85Q103.55 -7.8 101.5 -5.7M95.35,-8.2Q94.1 -9.75 92.85 -12.05L92.75 -12.25Q95.6 -7.75 98.2 -6.9Q98.05 -6.45 98.4 -5.8L98.65 -5.5Q97 -6.2 95.35 -8.2M100.2,-5.2L100.45 -5.45L100.75 -5.25L100.2 -5.2" />
<radialGradient
id="RadialGradID_4" gradientUnits="userSpaceOnUse" gradientTransform="matrix(0.0185394, -0.000549316, 0.000549316, 0.0185394, 96.75, -14.05)" spreadMethod ="pad" cx="0" cy="0" r="819.2" fx="0" fy="0" >
<stop  offset="0"  style="stop-color:#8D8D8D;stop-opacity:1" />
<stop  offset="0.992157"  style="stop-color:#111111;stop-opacity:1" />
</radialGradient>
<path style="fill:url(#RadialGradID_4) " d="M95.35,-8.2Q93.9 -9.65 92.4 -12.05L92.5 -11.85Q97.15 -3.45 101.45 -4.6L101.7 -4.75L101.75 -4.7L101.45 -4.55Q97.1 -3.4 92.45 -11.8Q90.5 -15.85 90.4 -19.1Q90.3 -22.35 92.05 -23.35Q96.2 -24.45 100.7 -16.65L101.95 -12.85L100.7 -16L100 -17.35Q103.4 -9.45 100.35 -6.95Q99.55 -8.05 98.6 -7.6L98.4 -7.4Q95.4 -9.35 92.85 -12.15Q95.3 -9.1 98.2 -6.95L98.2 -6.9Q95.6 -7.75 92.75 -12.25L92.85 -12.05Q94.1 -9.75 95.35 -8.2M91.65,-21.75Q89.6 -20.1 91.15 -17.15Q93.1 -14.45 95.5 -15.55Q97.55 -17.2 96 -20.15Q94.05 -22.85 91.65 -21.75" />
<radialGradient
id="RadialGradID_5" gradientUnits="userSpaceOnUse" gradientTransform="matrix(0.0453491, -0.00135803, 0.00135803, 0.0453491, 115.65, 0.95)" spreadMethod ="pad" cx="0" cy="0" r="819.2" fx="0" fy="0" >
<stop  offset="0"  style="stop-color:#F6F6F6;stop-opacity:1" />
<stop  offset="1"  style="stop-color:#E5E5E5;stop-opacity:1" />
</radialGradient>
<path style="fill:url(#RadialGradID_5) " d="M128.45,69.65Q118.35 74.9 106.9 73.5Q99.55 72.15 94.4 67.8L92.7 66.15Q90.2 63.6 88.35 60.25Q82.45 49.65 84.15 35.95L84.75 36.5Q87.6 28.8 91.95 21.85L96.95 15L97.75 13.95L98.45 13L99.7 11.7L100.6 10.8L102.1 9.35Q104.1 7.5 106.35 5.9L108 4.75L108 4.7L109.45 3.8Q118.95 -2 129.65 -1.3L131.75 -1.15L132.8 -1L133.95 -0.8L135.3 0L148.7 7.75Q149.9 9.35 150.75 11.25Q154.35 20.55 152.7 30.5Q150.7 44.7 143.1 56.95L140.8 60.5Q135.35 66.05 128.45 69.65M119.95,51.85Q119.1 52.15 118.45 52.85Q119.1 52.1 119.9 51.8Q121.75 51.15 122.8 51.45Q121.75 51.2 119.95 51.85M116,62.9L117.25 61.2L118.8 59.6L119.2 59.95Q122.15 58 125.2 56.3Q127.6 54.55 126.85 51.75Q125.75 48.85 122.75 48.55Q119.1 48.95 117.1 52.05Q114.15 57.15 115.35 62.95L116.1 63.75L116 62.9" />
<path style="fill:#D6D6D6;fill-opacity:1" d="M-82.8,-85.45L-91 -85.55Q-107.8 -85.75 -123.9 -81.25L-124.3 -81.1Q-114.75 -87.35 -103.8 -91.4Q-90.65 -96.75 -76.95 -100.4L-81.6 -88.2L-82.4 -85.85Q-82.4 -85.35 -82.8 -85.45" />
<path style="fill:#030303;fill-opacity:1" d="M-30.45,-93.3Q-14.8 -96.95 1.9 -95.1Q-8.35 -95.8 -18.55 -94.65Q-26.75 -93.7 -34.6 -91.6L-30.45 -93.3M-60.75,-80.95Q-76.95 -71.85 -89.5 -57.8Q-103.05 -42.35 -109.9 -23.2Q-116.75 -4.1 -116.1 16.45Q-115.25 36.9 -107 55.3Q-98.7 73.7 -84.45 88.25Q-69.95 102.9 -51.35 111.4Q-32.75 119.9 -12.2 121.4L-6.55 121.6L-5.4 122.45L-9.5 126.65Q-14.95 132.45 -21.95 136.25Q-31.35 141.4 -41.8 139.25Q-50.75 136.7 -56.75 129.55Q-59.75 126.15 -61.75 122.15Q-62.3 120.95 -63.25 120.5Q-74.75 123.85 -86.7 123.1Q-96.35 122.7 -104.5 117.7Q-112.9 111.4 -114.95 101Q-117.15 89.95 -115 78.9Q-114.15 73.7 -112.5 68.65Q-112.8 67.55 -113.95 66.85Q-122.6 61.8 -130.5 55.7Q-137.45 50.55 -143.45 44.3Q-149 38.8 -151.45 31.4Q-152.9 24.15 -149.5 17.45Q-145.8 9.8 -140 3.55Q-132.85 -4.45 -124.15 -10.75L-124.2 -10.95Q-128.1 -18.6 -131.3 -26.55Q-137.7 -41.05 -139.55 -56.75Q-140.35 -63.25 -137.85 -69.3L-137.75 -69.4Q-139.65 -60.75 -136.75 -50.35Q-133.25 -37.85 -127.3 -28.75L-126.75 -28Q-123.1 -22.8 -120.35 -21L-118.95 -20.3L-117.5 -20.1L-117.4 -20.1L-116.9 -20.15L-116.3 -20.3L-113.05 -22.85L-112.85 -23.15L-112.45 -24Q-110.95 -27.55 -111 -28.05Q-111.05 -28.45 -106.75 -36.45Q-102.5 -44.5 -93.5 -55.65L-72.1 -75.3L-70.3 -76.55L-68.2 -77.9L-60.75 -80.95" />
<path style="fill:#C7C7C7;fill-opacity:1" d="M-125.8,-12.55L-128.1 -10.8Q-133.75 -6.35 -138.8 -1.2Q-145.5 5.4 -150.1 13.65L-151.5 16.5Q-150.15 11.3 -147.95 6.35Q-141.65 -9.35 -129.9 -21.25Q-128.1 -17.2 -126.1 -13.25L-125.75 -12.55Q-125.55 -12.4 -125.8 -12.55" />
<path style="fill:#B5B5B5;fill-opacity:1" d="M-117.6,88.45Q-117.7 97.75 -114.15 106.15Q-112.95 108.95 -111.25 111.4Q-113.85 108.95 -115.15 105.35Q-118.1 98.45 -119.1 91Q-121.45 77.8 -118.4 65.1L-114.3 67.65Q-117.55 77.75 -117.6 88.45" />
<path style="fill:#E9E9E9;fill-opacity:1" d="M21.45,85.1Q21.95 85.5 21.65 84.95L20.55 83.65Q18.95 82.3 17.15 81.35Q24.9 81.75 38.75 77.9Q54.75 73.45 67.9 60.9Q78.8 48.95 81.6 42.35Q83.9 36.85 84.05 35.85L84.15 35.95Q82.45 49.65 88.35 60.25Q90.2 63.6 92.7 66.15L94.4 67.8Q99.55 72.15 106.9 73.5Q118.35 74.9 128.45 69.65Q135.35 66.05 140.8 60.5Q135.6 68 129.1 74.2L101.85 90.9L100.15 91.65L98.1 92.45L95.45 93.5Q74.5 101.35 55.85 101Q31.55 99.5 23.95 93.8Q16.35 88.1 20.3 88.25Q22.25 88.65 22.65 88Q22.9 87.55 22.45 86.55L21.45 85.1M-16.15,107.85Q-10.35 105.95 -10.65 100.1L-10.65 99.1L-9.95 99.6Q-10.6 88 -0.2 83.1Q0.5 90.65 3.9 97.5Q8.05 106.5 14.3 114.2Q20.2 121.8 28.1 127.85Q36.05 133.95 45.7 135.7Q53.8 137.05 61.15 133.3Q67.7 129.5 72 123.25Q76.3 117.05 79.6 110.25Q81.85 105.4 84.7 100.85L90.45 99.2Q88.3 102.2 86.85 105.65Q82.85 115.1 80.15 124.95Q77.2 134.55 69.55 140.95Q64.45 144.65 58.95 146.3L42.5 146.1L36.45 144.35L30.85 142L16.6 133.4L6.85 124.7L5.4 123.25L5.25 123.05L4.65 122.35L3 120.55L-6 111.9L-6.95 111.25Q-10.4 108.9 -14.55 108.2L-16.15 107.85" />
<path style="fill:#A7A7A7;fill-opacity:1" d="M117.65,53.85L115.85 60.8Q115.8 58.25 116.5 55.7Q117.6 51.65 121.55 49.8Q125.25 48.3 126.35 52Q126.15 54.6 123.75 55.95L122.35 56.7Q123.9 54.7 124 52.7Q123.75 51.65 122.8 51.45Q121.75 51.15 119.9 51.8Q119.1 52.1 118.45 52.85L117.65 53.85" />
<path style="fill:#1D1D1D;fill-opacity:1" d="M115.85,60.8L117.65 53.85L118.45 52.85Q119.1 52.15 119.95 51.85Q121.75 51.2 122.8 51.45Q123.75 51.65 124 52.7Q123.9 54.7 122.35 56.7L121.2 57.2Q119.7 57.95 118.5 59.1L118.8 59.6L117.25 61.2L116 62.9L115.85 60.8" />
<path style="fill:#151515;fill-opacity:1" d="M70.25,121.7L70.15 121.85L70.05 122Q64.4 116 56.3 114Q48.65 111.85 40.9 113Q46.5 118.65 49.4 126.6L48.7 126.1L47.85 124.9Q45.2 117.7 40.1 112.9L39.95 112.75Q35.75 108.9 29.95 106.55Q19.6 101.85 9 105.45L8.55 105.3L8.2 104.65L7.6 103.6Q13.4 101.25 19.7 102.25Q26.1 103.2 31.55 106.1Q35.65 108.3 39 111.2Q47.7 109.85 56.25 112.55L56.4 112.6Q64.6 115.25 70.25 121.7" />
<path style="fill:#3D3D3D;fill-opacity:1" d="M56.4,112.6L56.25 112.55L66.15 104.5L66.3 104.3Q73.95 103.6 81.6 101.65Q79.45 105.35 77.65 109.25Q74.45 115.8 70.25 121.7Q64.6 115.25 56.4 112.6" />
<radialGradient
id="RadialGradID_6" gradientUnits="userSpaceOnUse" gradientTransform="matrix(0.0578918, -0.0017395, 0.0017395, 0.0578918, 17, 108.7)" spreadMethod ="pad" cx="0" cy="0" r="819.2" fx="0" fy="0" >
<stop  offset="0.254902"  style="stop-color:#A9A9A9;stop-opacity:1" />
<stop  offset="0.941176"  style="stop-color:#D8D8D8;stop-opacity:1" />
</radialGradient>
<path style="fill:url(#RadialGradID_6) " d="M9,105.45Q19.6 101.85 29.95 106.55Q35.75 108.9 39.95 112.75L40.1 112.9Q45.2 117.7 47.85 124.9L48.7 126.1L49.4 126.6Q46.5 118.65 40.9 113Q48.65 111.85 56.3 114Q64.4 116 70.05 122L69.3 122.95Q64.45 129.45 57 132.65Q48.2 135.75 39.3 132.7Q31.05 129.9 24.35 124.15Q17.6 118.35 12.6 111.4Q10.45 108.45 8.55 105.3L9 105.45" />
</g>
</svg>
