<?xml version="1.0" encoding="utf-8"?>
<svg version="1.1" id="Layer_1"
xmlns="http://www.w3.org/2000/svg"
xmlns:xlink="http://www.w3.org/1999/xlink"
xmlns:author="http://www.sothink.com"
width="164px" height="212px"
xml:space="preserve">
<g id="PathID_1" transform="matrix(0.0352941, 0, 0, 0.0352941, 0, 37.8)">
<path style="fill:#000000;fill-opacity:1" d="M62 -204l217.5 0l0 204l-217.5 0l0 -204" />
</g>
<g id="PathID_2" transform="matrix(0.0352941, 0, 0, 0.0352941, 48, 37.8)">
<path style="fill:#000000;fill-opacity:1" d="M75 -733l226.5 0l0 552.5l353.5 0l0 180.5l-580 0l0 -733" />
</g>
<g id="PathID_3" transform="matrix(0.0352941, 0, 0, 0.0352941, 96, 37.8)">
<path style="fill:#000000;fill-opacity:1" d="M247 -359l-194.5 -20.5q11 -51 32 -80q20.5 -29.5 59.5 -51q28 -15.5 77 -24q49 -8.5 106 -8.5q91.5 0 147 10.5q55.5 10 92.5 42.5q26 22.5 41 64q15 41 15 78.5l0 234.5q0 37.5 5 59q4.5 21 20.5 54l-191 0q-11.5 -20.5 -15 -31q-3.5 -11 -7 -34q-40 38.5 -79.5 55q-54 22 -125.5 22q-95 0 -144 -44q-49.5 -44 -49.5 -108.5q0 -60.5 35.5 -99.5q35.5 -39 131 -58q114.5 -23 148.5 -32q34 -9.5 72 -24.5q0 -37.5 -15.5 -52.5q-15.5 -15 -54.5 -15q-50 0 -75 16q-19.5 12.5 -31.5 47l0 0M423.5 -252q-42 15 -87.5 26.5q-62 16.5 -78.5 32.5q-17 16.5 -17 37.5q0 24 17 39.5q16.5 15 49 15q34 0 63.5 -16.5q29 -16.5 41.5 -40q12 -24 12 -62l0 -32.5" />
</g>
<g id="PathID_4" transform="matrix(0.0352941, 0, 0, 0.0352941, 0, 84)">
<path style="fill:#000000;fill-opacity:1" d="M620.5 -733l0 733l-190.5 0l0 -78.5q-40 50 -73 67.5q-44 23 -98 23q-108.5 0 -165.5 -82.5q-57.5 -82.5 -57.5 -200.5q0 -132 63.5 -202q63 -70 160.5 -70q47.5 0 86.5 16q38.5 16 68.5 48l0 -254l205.5 0M416.5 -267q0 -62.5 -26.5 -93q-26.5 -31 -67 -31q-35.5 0 -59.5 29.5q-24 29.5 -24 99q0 65 25 95.5q24.5 30 61 30q39 0 65 -30.5q26 -30.5 26 -99.5l0 0" />
</g>
<g id="PathID_5" transform="matrix(0.0352941, 0, 0, 0.0352941, 48, 84)">
<path style="fill:#000000;fill-opacity:1" d="M431 -531l190.5 0l0 501.5l0.5 23.5q0 50 -21 95.5q-21.5 45 -56.5 73q-35.5 28 -89.5 40.5q-54.5 12.5 -124.5 12.5q-160 0 -219.5 -48q-60 -48 -60 -128.5q0 -10 1 -27l197.5 22.5q7.5 27.5 23 38q22.5 15.5 56.5 15.5q44 0 66 -23.5q21.5 -23.5 21.5 -82l0 -80.5q-30 35.5 -60 51.5q-47 25 -101.5 25q-106.5 0 -172 -93q-46.5 -66 -46.5 -174.5q0 -124 60 -189q60 -65 157 -65q62 0 102.5 21q40 21 75 69.5l0 -78.5M239.5 -273.5q0 57.5 24.5 85.5q24.5 27.5 64.5 27.5q38 0 64 -28.5q25.5 -29 25.5 -87q0 -58 -27 -88.5q-27 -31 -66 -31q-39 0 -62 28.5q-23.5 28 -23.5 93.5l0 0" />
</g>
<g id="PathID_6" transform="matrix(0.0352941, 0, 0, 0.0352941, 96, 84)">
<path style="fill:#000000;fill-opacity:1" d="M69 -733l203.5 0l0 138.5l-203.5 0l0 -138.5M69 -531l203.5 0l0 531l-203.5 0l0 -531" />
</g>
<g id="PathID_7" transform="matrix(0.0352941, 0, 0, 0.0352941, 0, 132)">
<path style="fill:#000000;fill-opacity:1" d="M61.5 -531l189.5 0l0 86.5q42.5 -53 86 -75.5q43.5 -23 106 -23q84.5 0 132.5 50.5q47.5 50 47.5 155l0 337.5l-204.5 0l0 -292q0 -50 -18.5 -70.5q-18.5 -21 -52 -21q-37 0 -60 28q-23 28 -23 100.5l0 255l-203.5 0l0 -531" />
</g>
<g id="PathID_8" transform="matrix(0.0352941, 0, 0, 0.0352941, 48, 132)">
<path style="fill:#000000;fill-opacity:1" d="M36.5 -264q0 -121.5 82 -200q82 -79 221.5 -79q159.5 0 241 92.5q65.5 74.5 65.5 183.5q0 122.5 -81 201q-81.5 78 -225 78q-128 0 -207 -65q-97 -80.5 -97 -211l0 0M240.5 -264.5q0 71 29 105q28.5 34 72 34q44 0 72.5 -33.5q28 -33.5 28 -107.5q0 -69 -28.5 -102.5q-28.5 -34 -70.5 -34q-44.5 0 -73.5 34.5q-29 34 -29 104l0 0" />
</g>
</svg>
