<?xml version="1.0" encoding="utf-8"?>
<svg version="1.1" id="Layer_1"
xmlns="http://www.w3.org/2000/svg"
xmlns:xlink="http://www.w3.org/1999/xlink"
xmlns:author="http://www.sothink.com"
width="260px" height="308px"
xml:space="preserve">
<g id="PathID_9" transform="matrix(0.0352941, 0, 0, 0.0352941, 0, 37.8)">
<path style="fill:#000000;fill-opacity:1" d="M171 -802q-42 0 -42 56l21 126q1 21 21 21q18 0 21 -21l21 -126q0 -55 -42 -56l0 0M342 -802q-42 0 -42 56l21 126q1 21 21 21q18 0 21 -21l21 -126q0 -55 -42 -56l0 0" />
</g>
<g id="PathID_10" transform="matrix(0.0352941, 0, 0, 0.0352941, 48, 37.8)">
<path style="fill:#000000;fill-opacity:1" d="M256 -62q0 22 -15 39q-13 15 -49 29q-7 3 -8 14q0 12 8 18q9 6 18 4q55 -19 88 -61q37 -45 28 -113l0 0q-4 -34 -26 -53q-19 -16 -44 -17q-31 0 -51 19q-19 19 -19 51q0 28 19 48q22 22 51 22l0 0" />
</g>
<g id="PathID_11" transform="matrix(0.0352941, 0, 0, 0.0352941, 96, 37.8)">
<path style="fill:#000000;fill-opacity:1" d="M80 -473q-22 0 -37 14q-13 15 -13 35q0 22 13 36q13 13 37 14l864 0q22 0 36 -15q13 -15 13 -35q0 -22 -13 -36q-13 -13 -36 -13l-864 0" />
</g>
<g id="PathID_12" transform="matrix(0.0352941, 0, 0, 0.0352941, 144, 37.8)">
<path style="fill:#000000;fill-opacity:1" d="M572 -320q55 103 115 175q115 144 220 212q22 13 43 9q19 -3 33 -22q10 -18 8 -38q-4 -21 -27 -36q-130 -85 -214 -186q-73 -84 -129 -224q55 -117 79 -309q0 -10 1 -18q0 -33 -23 -56q-22 -22 -62 -22l-332 0q-28 0 -44 12q-18 13 -22 35q-39 181 -113 272q-61 60 -63 79q-1 21 14 38q15 13 35 17q19 -1 38 -18q66 -63 105 -132q37 -75 56 -178q3 -16 12 -24q7 -6 24 -6l254 0q15 -1 20 6q22 36 -53 255q-15 30 -18 42q-1 1 -3 9q-105 225 -283 325q-90 52 -173 80q-25 7 -35 28q-10 18 -3 41q7 21 26 32q19 9 47 0q46 -18 139 -69q189 -111 284 -255q22 -36 44 -74l0 0" />
</g>
<g id="PathID_13" transform="matrix(0.0352941, 0, 0, 0.0352941, 192, 37.8)">
<path style="fill:#000000;fill-opacity:1" d="M127 -433q0 240 0 481q0 21 12 34q12 10 29 11q19 -1 29 -12q13 -13 13 -33q0 -325 0 -653q31 -88 56 -212q4 -22 -6 -38q-10 -13 -29 -17q-19 -1 -32 8q-15 10 -18 32q-27 204 -145 378q-13 18 -10 36q1 16 17 28q16 10 32 9q18 -4 52 -52l0 0M362 -688q0 -19 -13 -31q-12 -10 -29 -11q-19 0 -30 11q-10 10 -11 31q0 324 0 648q0 21 12 34q12 10 29 11q19 -1 29 -12q13 -13 13 -33q0 -324 0 -648l0 0M494 -644q46 66 114 124q-76 37 -191 65q-21 4 -32 21q-7 15 -4 33q4 18 20 26q15 10 37 5q136 -34 242 -98q180 99 276 89q4 -1 10 -4q15 -7 20 -27q3 -16 -5 -32q-9 -15 -89 -32q-73 -18 -143 -46q87 -81 127 -202l68 0q19 0 30 -13q10 -12 11 -29q0 -19 -11 -30q-10 -10 -30 -11l-381 0q6 -31 -2 -49q-10 -13 -30 -17q-18 -3 -31 6q-15 10 -19 32q-10 45 -27 85q-1 0 0 1q-4 4 -5 11q-22 46 -60 85q-21 19 -22 35q-1 15 10 29q13 15 31 18q16 3 34 -13q27 -25 52 -62l0 0M652 -585q-66 -57 -108 -137l244 0q-36 93 -113 156q-12 -10 -23 -19l0 0M684 -410q-102 82 -219 111q-42 4 -54 20q-10 13 -6 34q4 19 14 28q42 25 183 -38q148 -72 154 -118q0 -18 -11 -31q-13 -16 -29 -17q-16 -1 -32 11l0 0M791 -313q-115 121 -240 154q-49 10 -103 16q-43 3 -40 51q4 19 18 28q10 7 37 6q84 -1 159 -29q121 -48 234 -169q12 -13 13 -31q1 -18 -13 -32q-15 -15 -33 -13q-18 3 -32 19l0 0M902 -222q-124 171 -414 219q-87 9 -94 37q-3 6 -2 14q1 19 13 31q31 27 226 -25q231 -63 346 -233q10 -19 7 -37q-4 -16 -20 -26q-18 -9 -34 -4q-16 4 -28 24l0 0" />
</g>
<g id="PathID_14" transform="matrix(0.0352941, 0, 0, 0.0352941, 0, 84)">
<path style="fill:#000000;fill-opacity:1" d="M127 -441q0 244 0 489q0 21 12 34q12 10 29 11q19 -1 29 -12q13 -13 13 -33q0 -325 0 -652q0 -4 -1 -10q31 -87 53 -208q4 -22 -6 -37q-10 -13 -29 -17q-19 -1 -32 8q-15 10 -18 33q-24 201 -141 373q-13 18 -10 36q1 16 18 28q15 10 32 9q16 -4 51 -52l0 0M362 -696q0 -19 -13 -31q-12 -10 -29 -11q-19 0 -30 11q-10 10 -11 31q0 310 0 620q0 21 12 34q12 10 29 11q19 -1 29 -12q13 -13 13 -33q0 -310 0 -620l0 0M797 -653l-369 0q-19 0 -31 12q-10 12 -11 29q0 19 11 30q10 12 31 12l520 0q19 0 30 -13q10 -12 11 -29q0 -19 -11 -30q-10 -10 -30 -11l-64 0l9 -109q6 -27 -15 -52q-18 -18 -47 -19l-367 0q-21 0 -34 11q-12 10 -12 30q0 16 12 29q13 13 34 13l311 0q15 0 23 11q7 7 4 25l-5 61M692 -136q75 147 230 217q21 10 37 6q16 -4 26 -20q7 -16 5 -33q-6 -16 -68 -50q-114 -54 -169 -174q-3 -4 -3 -8l202 0q19 0 30 -13q10 -12 11 -29q0 -19 -11 -30q-10 -10 -30 -11l-224 0l0 -117l200 0q19 0 30 -13q10 -12 11 -29q0 -19 -11 -30q-10 -10 -30 -11l-386 0q1 -7 4 -12q7 -19 -2 -36q-9 -13 -25 -19q-19 -4 -32 4q-15 7 -21 28q-22 72 -71 128q-15 16 -15 34q1 16 14 29q15 12 30 11q27 0 80 -84l137 0l0 117l-213 0q-19 0 -31 12q-10 12 -11 29q0 19 11 30q10 12 31 12l201 0q-72 147 -252 199q-48 9 -36 54q6 19 20 27q39 21 173 -56q105 -60 158 -162l0 0" />
</g>
<g id="PathID_15" transform="matrix(0.0352941, 0, 0, 0.0352941, 48, 84)">
<path style="fill:#000000;fill-opacity:1" d="M465 -744q-57 213 -142 368q-7 10 -13 23q-82 147 -237 302q-48 42 -47 65q0 19 17 37q16 16 34 17q45 0 184 -186q142 -190 257 -497q82 303 215 478q55 79 161 195q19 16 42 16q19 -3 34 -19q15 -18 12 -37q-1 -22 -21 -39q-162 -171 -244 -324q-96 -171 -134 -364q-3 -9 -3 -15q-16 -71.5 -37 -89q-21 -18 -46 -18l-285 0q-22 0 -35 12q-12 10 -13 31q0 18 12 31q13 13 36 13l247 0q3 0 6 0l0 0" />
</g>
<g id="PathID_16" transform="matrix(0.0352941, 0, 0, 0.0352941, 96, 84)">
<path style="fill:#000000;fill-opacity:1" d="M110 -672q1 225 -73 589q-4 22 4 38q9 15 28 19q19 3 35 -6q13 -10 19 -32q76 -352 74 -609q0 -22 -12 -35q-13 -13 -32 -12q-19 1 -31 12q-12 13 -12 36l0 0M283 -752l0 659q-3 63 37 114q21 25 60 37q61 13 170 13q102 0 151 -14q42 -10 77 -45q27 -27 36 -67q7 -36 7 -177q0 -24 -13 -38q-13 -12 -32 -13q-21 1 -33 14q-13 13 -13 36q0 130 -16 162q-27 45 -123 50q-18 0 -39 1q-91 0 -124 -9q-28 -6 -40 -26q-13 -22 -14 -45l0 -652q0 -24 -14 -38q-13 -12 -32 -13q-21 1 -32 14q-13 13 -13 37l0 0M464 -802q61 190 96 520q1 22 15 35q13 12 33 10q19 -3 30 -17q10 -13 9 -35q-28 -322 -100 -541q-7 -21 -22 -29q-16 -7 -34 -2q-19 6 -26 21q-7 16 -1 38l0 0M780 -694q73 223 116 609q3 22 16 35q13 10 32 9q19 -3 31 -17q10 -13 8 -35q-36 -375 -120 -629q-7 -21 -23 -29q-15 -7 -33 -2q-19 7 -26 21q-7 16 -1 38l0 0" />
</g>
<g id="PathID_17" transform="matrix(0.0352941, 0, 0, 0.0352941, 144, 84)">
<path style="fill:#000000;fill-opacity:1" d="M450 -260q27 -1 48 -21q22 -22 22 -49l0 -217q-1 -25 -18 -42q-21 -19 -52 -18l-298 0q-25 0 -42 18q-18 18 -17 42l0 217q-1 27 17 50q15 19 42 20l298 0M399 -520q18 0 27 11q7 7 7 24l0 104q-1 16 -8 25q-9 9 -26 9l-185 0q-16 0 -26 -9q-7 -9 -8 -25l0 -104q-1 -16 8 -27q7 -7 26 -8l185 0M484 -221q-142 57 -396 100q-22 3 -35 19q-9 15 -7 34q4 19 19 29q15 10 38 7q249 -40 412 -108q21 -7 29 -25q6 -15 0 -33q-7 -18 -23 -24q-16 -7 -37 1l0 0M675 -231q-7 7 -11 15q-96 127 -270 195q-22 9 -30 27q-7 16 -1 36q7 19 24 27q19 7 42 -1q88 -33 151 -80q78 -58 129 -123q55 124 103 176q43 40 72 41q19 0 32 -6q45 -27 71 -221q1 -19 -10 -37q-12 -12 -30 -14q-19 -1 -32 10q-12 13 -20 95q-9 61 -19 62q-13 0 -43 -49q-31 -51 -65 -141q97 -163 130 -320q4 -22 -5 -38q-10 -13 -27 -18q-19 -3 -33 6q-15 10 -20 31q-33 148 -79 232q-43 -147 -73 -362l143 0q19 0 31 -13q12 -13 12 -31q0 -19 -12 -32q-12 -10 -31 -11l-153 0q-3 -28 -4 -55q-1 -22 -14 -36q-13 -10 -31 -10q-19 1 -31 14q-12 12 -8 87l-475 0q-19 0 -32 12q-12 13 -12 31q0 19 12 32q12 12 32 12l485 0q31 246 102 457l0 0M826 -789q36 45 79 130q10 19 26 26q15 4 32 -3q16 -9 22 -25q4 -15 -4 -34q-45 -91 -91 -147q-13 -16 -30 -18q-16 -1 -30 9q-15 12 -16 28q-1 16 12 34l0 0" />
</g>
<g id="PathID_18" transform="matrix(0.0352941, 0, 0, 0.0352941, 192, 84)">
<path style="fill:#000000;fill-opacity:1" d="M96 -819q-22 0 -35 12q-12 10 -13 31q0 18 12 31q13 13 36 13l212 0q33 0 33 33l0 135q-1 22 -10 34q-10 10 -35 11l-160 0q-37 0 -60 25q-24 25 -23 58l0 348q0 52 24 85q18 24 57 38q34 10 122 12q105 1 151 -40q21 -19 32 -54q10 -31 8 -143q-1 -22 -14 -35q-13 -10 -31 -11q-19 1 -30 14q-13 13 -12 35q0 111 -32 134q-24 12 -77 12q-3 0 -6 0q-73 -3 -93 -25q-12 -13 -12 -47l0 -281q-1 -16 9 -27q10 -12 30 -11l164 0q37 -1 62 -25q22 -22 23 -59l0 -221q0 -33 -19 -53q-24 -28 -63 -29l-250 0M541 -457q24 147 119 277q-48 67 -204 177q-18 12 -21 30q-3 18 10 36q10 16 30 20q33 7 160 -110q46 -46 80 -84q84 100 197 181q19 13 39 11q18 -3 31 -19q10 -16 9 -36q-4 -19 -24 -33q-129 -93 -199 -177q123 -222 120 -496l52 0q19 0 31 -13q12 -13 12 -31q0 -19 -12 -32q-12 -10 -31 -11l-322 0q6 -72 -10 -90q-13 -12 -31 -13q-21 -1 -34 11q-12 12 -13 33q-6 228 -98 390q-12 19 -27 44q-10 16 -7 34q4 16 22 28q18 10 32 8q33 -7 87 -130q1 -3 2 -5l0 0M684 -301q-88 -153 -72 -379l189 0q9 243 -90 425q-16 -25 -27 -46l0 0" />
</g>
<g id="PathID_19" transform="matrix(0.0352941, 0, 0, 0.0352941, 0, 132)">
<path style="fill:#000000;fill-opacity:1" d="M274 0q27 -1 48 -21q22 -22 22 -49l0 -693q-1 -25 -18 -42q-21 -19 -52 -18l-150 0q-25 0 -42 18q-18 18 -17 42l0 693q-1 27 17 50q15 19 42 20l150 0M257 -384l0 263q-1 16 -8 25q-9 9 -26 9l-37 0q-16 0 -26 -9q-7 -9 -8 -25l0 -263l105 0M152 -471l0 -230q-1 -16 8 -27q7 -7 26 -8l37 0q18 0 27 11q7 7 7 24l0 230l-105 0M785 -300l0 257q0 19 -9 29q-12 13 -29 13q-27 0 -107 -17q-21 -7 -37 2q-15 7 -21 26q-4 16 2 33q27 42 187 43q60 -3 90 -56q10 -19 11 -50l0 -280l76 0q19 0 31 -13q12 -13 12 -31q0 -19 -12 -32q-12 -10 -31 -11l-76 0l0 -95l80 0q19 0 30 -13q10 -12 11 -29q0 -19 -11 -30q-10 -10 -30 -11l-228 0q0 -61 0 -121l196 0q19 0 30 -13q10 -12 11 -29q0 -19 -11 -30q-10 -10 -30 -11l-196 0q0 -34 0 -67q0 -19 -14 -32q-12 -12 -30 -12q-19 0 -32 12q-10 12 -11 99l-201 0q-19 0 -31 12q-10 12 -11 29q0 19 11 30q10 12 31 12l201 0q0 58 0 121l-225 0q-19 0 -31 12q-10 12 -11 29q0 19 11 30q10 12 31 12l373 0l0 95l-365 0q-19 0 -32 12q-12 13 -12 31q0 19 12 32q12 12 32 12l365 0M458 -211q31 46 68 134q9 21 25 29q16 7 34 0q18 -7 25 -25q6 -16 -2 -36q-37 -93 -78 -151q-13 -19 -30 -22q-16 -4 -33 7q-16 12 -19 28q-3 18 10 36l0 0" />
</g>
<g id="PathID_20" transform="matrix(0.0352941, 0, 0, 0.0352941, 48, 132)">
<path style="fill:#000000;fill-opacity:1" d="M839 -336q22 0 41 -18q19 -19 20 -43l0 -158q-1 -22 -16 -36q-19 -16 -45 -16l-675 0q-22 0 -37 15q-15 16 -14 37l0 158q-1 24 15 44q13 16 36 17l675 0M734 -469q9 -18 3 -33q-4 -15 -21 -22q-16 -7 -30 -2q-16 6 -24 24q-16 37 -57 92q-1 1 -2 3l-51 0l0 -129l240 0q15 0 23 9q6 7 6 21l0 70q-1 13 -7 21q-7 7 -22 8l-93 0q21 -33 35 -62l0 0M362 -410q16 -7 21 -23q7 -28 -34 -80q-13 -15 -29 -17q-16 -1 -29 9q-13 10 -15 26q-1 16 11 32q9 10 20 31q10 19 23 25l-109 0q-15 0 -22 -8q-7 -7 -7 -21l0 -70q-1 -13 7 -23q6 -7 22 -7l252 0l0 129l-116 0q1 -1 5 -3l0 0M788 72q25 0 44 -19q19 -19 20 -45l0 -233q-1 -22 -17 -38q-19 -16 -47 -16l-573 0q-22 -1 -39 16q-15 16 -15 38l0 233q-1 25 16 46q13 16 38 18l573 0M765 -68l0 38q-1 15 -7 23q-9 7 -24 8l-455 0q-16 0 -23 -8q-7 -7 -8 -23l0 -38l517 0M248 -139l0 -38q-1 -15 7 -24q6 -7 24 -7l455 0q16 0 24 9q7 7 7 22l0 38l-517 0M702 -704q235 87 266 75q1 -1 4 -2q13 -9 18 -29q4 -18 -5 -32q-9 -15 -29 -19q-234 -57 -396 -154q-18 -10 -48 -11q-28 0 -52 15q-153 94 -389 154q-19 4 -29 18q-9 13 -5 33q3 16 17 28q28 22 254 -66q1 -1 6 -2q0 24 10 35q10 10 28 11l316 0q16 0 27 -12q10 -10 10 -26q0 -9 -3 -16l0 0M543 -779q42 25 107 54l-269 0q58 -27 100 -53q27 -18 62 -1l0 0" />
</g>
<g id="PathID_21" transform="matrix(0.0352941, 0, 0, 0.0352941, 96, 132)">
<path style="fill:#000000;fill-opacity:1" d="M324 -124l517 0l0 72q0 27 -20 36q-39 16 -149 -16q-45 -12 -60 29q-4 19 3 35q25 40 194 45q48 -1 76 -18q43 -24 43 -72l0 -507q-1 -31 -25 -56q-22 -22 -54 -23l-458 0q28 -33 58 -71q10 -16 23 -30l464 0q19 0 31 -13q12 -13 12 -31q0 -19 -12 -32q-12 -10 -31 -11l-407 0q15 -30 11 -46q-4 -16 -21 -27q-18 -10 -35 -6q-18 3 -63 79l-337 0q-19 0 -32 12q-12 13 -12 31q0 19 12 32q12 12 32 12l278 0q-114 144 -302 246q-19 10 -24 28q-4 18 6 37q10 19 26 23q34 10 161 -85q3 -3 8 -6l0 493q0 22 12 35q13 12 31 11q19 0 32 -12q12 -13 12 -34l0 -160M324 -211l0 -105l517 0l0 105l-517 0M324 -403l0 -76q0 -13 9 -23q10 -10 24 -10l455 0q10 0 20 8q7 9 9 20l0 81l-517 0" />
</g>
<g id="PathID_22" transform="matrix(0.0352941, 0, 0, 0.0352941, 144, 132)">
<path style="fill:#000000;fill-opacity:1" d="M80 -759q-19 0 -32 12q-12 13 -12 31q0 19 12 32q12 12 32 12l204 0q19 0 31 -13q12 -13 12 -31q0 -19 -12 -32q-12 -10 -31 -11l-204 0M345 -399q-114 118 -269 173q-48 15 -34 62q7 19 23 28q43 18 183 -71q72 -45 158 -131q16 -16 17 -34q-1 -16 -14 -30q-13 -13 -31 -13q-18 0 -33 16l0 0M589 -271q72 184 322 331q21 13 41 8q18 -4 29 -22q9 -19 4 -36q-4 -19 -25 -31q-235 -117 -290 -273q-33 -69 -34 -219l0 -175l222 0q12 1 18 9q9 12 -24 102q-22 63 -83 161q-10 16 -7 34q4 16 22 28q16 10 33 7q18 -4 29 -22q64 -106 95 -189q46 -129 24 -176q-10 -16 -31 -31q-22 -10 -45 -10l-398 0q4 -21 11 -41q4 -22 -5 -38q-10 -13 -29 -17q-19 -3 -32 6q-15 10 -19 32q-40 186 -160 310q-21 19 -22 35q-1 15 10 29q13 13 31 18q16 3 34 -13q87 -81 151 -234l88 0l0 208q0 247 -230 389q-57 39 -139 70q-22 7 -33 25q-7 16 -1 36q7 19 24 28q46 18 209 -87q3 -3 7 -5q132 -93 203 -247l0 0" />
</g>
<g id="PathID_23" transform="matrix(0.0352941, 0, 0, 0.0352941, 192, 132)">
<path style="fill:#000000;fill-opacity:1" d="M105 -23q-54 12 -63 27q-9 15 -5 33q4 19 18 28q13 9 34 5q103 -24 267 -75q109 -33 170 -64q22 -10 25 -26q3 -16 -5 -34q-7 -16 -23 -22q-15 -4 -34 3q-34 16 -89 36q0 -219 0 -436l108 0q19 0 31 -13q12 -13 12 -31q0 -19 -12 -32q-12 -10 -31 -11l-108 0q0 -94 0 -189q0 -19 -14 -32q-12 -12 -30 -12q-19 0 -32 12q-10 12 -11 32q0 370 0 741q-6 0 -121 37q0 -313 0 -626q0 -19 -14 -32q-12 -12 -30 -12q-19 0 -32 12q-10 12 -11 118q0 280 0 563l0 0M676 -536l0 -280q0 -22 -13 -36q-13 -12 -31 -12q-19 1 -31 13q-12 13 -12 35l0 770q-1 52 46 85q33 21 124 22q123 0 151 -13q36 -18 51 -52q15 -39 14 -214q0 -21 -14 -36q-13 -10 -31 -10q-19 -1 -31 14q-18 22 -9 158q0 64 -77 65q-43 0 -88 0q-21 -1 -35 -14q-13 -15 -14 -35l0 -353q67 -46 168 -131q69 -55 104 -95q16 -18 13 -33q-3 -16 -17 -30q-13 -12 -31 -12q-15 1 -30 16q-25 28 -207 178l0 0" />
</g>
<g id="PathID_24" transform="matrix(0.0352941, 0, 0, 0.0352941, 0, 180)">
<path style="fill:#000000;fill-opacity:1" d="M107 -32q-54 7 -66 25q-9 15 -6 34q3 19 17 31q13 10 35 6q85 -15 218 -50q88 -22 140 -45q24 -9 27 -25q4 -16 -3 -36q-7 -18 -24 -24q-15 -6 -35 2q-51 21 -155 47q-31 7 -57 15q0 -234 0 -466l242 0q19 0 33 -14q12 -13 12 -32q0 -21 -12 -33q-13 -12 -33 -12l-242 0q0 -108 0 -215q0 -21 -14 -34q-13 -12 -32 -12q-21 0 -33 12q-12 13 -12 34q0 394 0 792l0 0M606 -552l0 -268q0 -24 -14 -38q-13 -12 -32 -13q-21 1 -32 14q-13 13 -13 37l0 780q0 55 48 89q28 18 62 21q219 9 268 -12q60 -31 68 -120q1 -39 4 -159q1 -22 -14 -38q-13 -10 -32 -12q-19 0 -33 15q-13 15 -14 166q0 67 -79 69q-66 0 -136 0q-22 -1 -36 -15q-15 -15 -15 -36l0 -376q-1 -1 2 -2q226 -106 342 -198q16 -13 18 -32q0 -19 -12 -35q-13 -16 -31 -19q-19 -1 -36 13q-99 85 -283 169l0 0" />
</g>
<g id="PathID_25" transform="matrix(0.0352941, 0, 0, 0.0352941, 48, 180)">
<path style="fill:#000000;fill-opacity:1" d="M832 -613q100 -96 98 -130q-1 -16 -17 -27q-16 -10 -31 -8q-18 3 -30 20q-27 37 -83 89q-7 6 -12 14q-4 -3 -9 -6q-27 -16 -51 -33q111 -90 109 -126q-1 -16 -15 -28q-15 -12 -30 -11q-18 3 -31 19q-28 34 -87 82q-7 4 -12 12q-28 -25 -51 -50q-34 -39 -63 -39l-269 0q-19 0 -32 11q-10 10 -12 28q1 16 11 28q12 12 33 12l164 0q-55 49 -113 89q-39 -33 -140 -90q-18 -9 -33 -3q-15 6 -23 21q-7 16 -2 31q4 13 80 58q22 13 43 28q-75 40 -166 72q-21 7 -29 23q-7 13 -3 33q6 16 21 26q48 21 247 -101q100 -61 223 -178q16 9 31 24q105 115 281 199q105 48 135 36q13 -7 21 -25q4 -19 -3 -34q-7 -16 -29 -23q-64 -16 -121 -43l0 0M360 -591q-19 0 -29 11q-10 12 -11 28q0 18 11 29q10 10 29 11l312 0q18 0 28 -12q10 -12 11 -28q0 -18 -11 -29q-10 -10 -28 -10l-312 0M315 -23l-195 0q-19 0 -29 11q-10 12 -11 28q0 18 11 29q10 10 29 11l780 0q18 0 28 -12q10 -12 11 -28q0 -18 -11 -29q-10 -10 -28 -10l-201 0l46 -153l58 0q25 0 47 -20q18 -19 18 -46l0 -141q-1 -25 -17 -47q-19 -22 -48 -21l-591 0q-27 -1 -46 19q-22 22 -21 49l0 141q-1 25 20 47q19 19 47 19l53 0l50 153M404 -23l-51 -153l306 0l-47 153l-208 0M751 -372q13 0 21 8q9 7 9 20l0 58q0 13 -8 23q-7 7 -22 8l-491 0q-13 0 -21 -9q-7 -9 -7 -22l0 -58q0 -13 7 -20q7 -9 21 -8l491 0" />
</g>
<g id="PathID_26" transform="matrix(0.0352941, 0, 0, 0.0352941, 96, 180)">
<path style="fill:#000000;fill-opacity:1" d="M391 -202q-142 111 -327 163q-21 6 -30 22q-9 13 -5 33q6 16 20 26q45 24 238 -81q85 -46 190 -133q0 111 0 224q0 22 12 35q13 12 31 12q19 -1 31 -13q13 -13 13 -34q0 -127 0 -254l279 0q12 0 19 4q7 6 6 22q-6 106 -27 122q-24 18 -125 -1q-46 -9 -56 33q-1 18 6 33q10 15 33 19q138 27 197 -12q25 -19 37 -51q13 -45 21 -178q1 -30 -19 -51q-22 -22 -77 -23l-294 0q0 -37 0 -73l282 0q30 -1 52 -23q21 -22 22 -51l0 -108q-1 -28 -22 -49q-19 -19 -47 -20l-707 0q-21 0 -34 12q-10 10 -12 29q1 16 11 29q13 13 35 13l333 0q0 42 0 85l-309 0q-31 1 -50 19q-16 16 -20 34l-15 121q-3 22 14 44q21 19 46 21l248 0M477 -285l-278 0q-7 0 -17 -5q-7 -4 -7 -11l5 -42q4 -16 25 -15l272 0q0 36 0 73l0 0M564 -526l248 0q7 0 14 6q6 6 7 14l0 40q-1 9 -8 17q-7 7 -18 8l-243 0q0 -43 0 -85l0 0M267 -736q27 102 37 109q13 7 29 6q16 -4 25 -16q15 -19 -8 -92q-1 -4 -3 -7l109 0q18 0 28 -12q10 -12 11 -28q0 -18 -11 -29q-10 -10 -28 -10l-223 0q7 -21 2 -39q-7 -13 -23 -21q-18 -6 -32 1q-16 7 -23 26q-34 100 -113 177q-16 13 -17 31q-1 16 11 30q12 13 28 14q18 1 33 -14q46 -43 97 -126l71 0M687 -736q19 39 29 79q9 39 48 32q16 -6 24 -19q10 -19 -9 -68q-4 -12 -9 -24l170 0q18 0 28 -12q10 -12 11 -28q0 -18 -11 -29q-10 -10 -28 -10l-295 0q0 -1 1 -1q7 -19 2 -37q-7 -13 -23 -22q-18 -6 -32 1q-16 6 -24 25q-33 85 -101 149q-15 13 -17 31q-1 15 10 30q12 13 28 15q16 1 34 -13q31 -27 81 -99l83 0" />
</g>
<g id="PathID_27" transform="matrix(0.0352941, 0, 0, 0.0352941, 144, 180)">
<path style="fill:#000000;fill-opacity:1" d="M249 -728q9 30 16 78q3 19 16 32q13 9 30 7q19 -3 28 -15q12 -16 -4 -96q-1 -4 -2 -6l115 0q18 0 28 -12q10 -12 11 -28q0 -18 -11 -29q-10 -10 -28 -10l-218 0q10 -33 7 -44q-6 -13 -21 -22q-16 -6 -31 0q-15 6 -23 24q-45 90 -117 155q-16 13 -19 29q0 16 10 30q12 13 27 14q27 3 81 -59q19 -22 37 -48l68 0M697 -188l0 137q0 19 -9 29q-13 15 -33 15q-33 0 -123 -19q-21 -6 -37 2q-15 7 -21 26q-4 16 2 33q27 45 202 45q64 -3 95 -58q10 -19 11 -50l0 -160l144 0q18 0 28 -12q10 -12 11 -28q0 -18 -11 -29q-10 -10 -28 -10l-144 0l0 -81l168 0q18 0 28 -12q10 -12 11 -28q0 -18 -11 -29q-10 -10 -28 -10l-396 0q0 -40 0 -77l304 0q18 0 28 -12q10 -12 11 -28q0 -18 -11 -29q-10 -10 -28 -10l-304 0q0 -40 -14 -53q-4 -4 -8 -5q36 -39 65 -83l101 0q0 1 2 5q12 33 24 83q3 21 17 31q13 9 31 6q18 -4 26 -17q16 -27 -15 -108l163 0q18 0 28 -12q10 -12 11 -28q0 -18 -11 -29q-10 -10 -28 -10l-306 0q1 -6 5 -11q7 -18 1 -35q-7 -13 -22 -20q-16 -6 -31 1q-9 3 -47 75q-1 0 -1 1q-7 7 -11 20q-4 4 -7 11q-25 37 -58 68q-15 13 -17 31q0 22 19 36q-3 6 -4 43l-301 0q-19 0 -29 11q-10 12 -11 28q0 18 11 29q10 10 29 11l301 0q0 37 0 77l-381 0q-19 0 -29 11q-10 12 -11 28q0 18 11 29q10 10 29 11l609 0l0 81l-581 0q-19 0 -29 11q-10 12 -11 28q0 18 11 29q10 10 29 11l581 0M256 -95q27 27 69 88q12 18 29 23q16 1 32 -7q16 -10 19 -27q6 -28 -87 -136q-16 -16 -34 -17q-16 1 -30 13q-13 13 -13 30q0 18 15 33l0 0" />
</g>
<g id="PathID_28" transform="matrix(0.0352941, 0, 0, 0.0352941, 192, 180)">
<path style="fill:#000000;fill-opacity:1" d="M353 -558q0 247 0 498q0 19 11 32q10 10 28 11q18 -1 28 -12q12 -12 12 -31q0 -250 0 -498l35 0q10 0 19 8q7 7 9 19l0 479q0 33 -20 45q-12 9 -62 -5q-48 -9 -57 33q-4 19 5 34q21 31 132 25q28 -3 44 -15q40 -28 41 -86l0 -545q0 -30 -24 -53q-22 -22 -51 -22l-186 0l25 -101q0 -3 0 -4l222 0q19 0 30 -13q10 -12 11 -29q0 -19 -11 -30q-10 -10 -30 -11l-488 0q-19 0 -31 12q-10 12 -11 29q0 19 11 30q10 12 31 12l177 0l-26 105l-77 0q-31 -1 -53 22q-22 22 -22 52l0 611q0 21 12 34q12 10 29 11q19 -1 29 -12q13 -13 13 -33l0 -571q0 -12 9 -22q9 -9 23 -9l23 0q0 253 0 506q0 19 11 32q10 10 28 11q18 -1 28 -12q12 -12 12 -31q0 -253 0 -506l61 0M821 -622l0 575q0 19 -9 29q-12 13 -27 13q-21 0 -98 -13q-21 -6 -37 2q-13 7 -21 27q-4 16 4 33q18 30 101 36q87 10 128 -16q45 -30 46 -88l0 -598l44 0q19 0 30 -13q10 -12 11 -29q0 -19 -11 -30q-10 -10 -30 -11l-44 0l0 -127q0 -22 -13 -36q-13 -12 -31 -12q-19 1 -31 13q-12 13 -12 35l0 127l-221 0q-19 0 -31 12q-10 12 -11 29q0 19 11 30q10 12 31 12l221 0M622 -503q42 177 53 323q1 22 16 34q13 10 31 10q19 -3 29 -16q28 -34 -46 -374q-6 -22 -22 -31q-15 -7 -33 -3q-18 6 -25 21q-9 15 -3 36l0 0" />
</g>
<g id="PathID_29" transform="matrix(0.0352941, 0, 0, 0.0352941, 0, 228)">
<path style="fill:#000000;fill-opacity:1" d="M108 -837q-19 0 -31 12q-10 12 -11 29q0 19 11 30q10 12 31 12l208 0q19 0 30 -13q10 -12 11 -29q0 -19 -11 -30q-10 -10 -30 -11l-208 0M72 -705q-19 0 -31 12q-10 12 -11 29q0 19 11 30q10 12 31 12l276 0q19 0 30 -13q10 -12 11 -29q0 -19 -11 -30q-10 -10 -30 -11l-276 0M108 -569q-19 0 -31 12q-10 12 -11 29q0 19 11 30q10 12 31 12l216 0q19 0 30 -13q10 -12 11 -29q0 -19 -11 -30q-10 -10 -30 -11l-216 0M104 -437q-19 0 -31 12q-10 12 -11 29q0 19 11 30q10 12 31 12l220 0q19 0 30 -13q10 -12 11 -29q0 -19 -11 -30q-10 -10 -30 -11l-220 0M311 62q25 0 46 -20q21 -21 21 -47l0 -235q-1 -25 -18 -40q-19 -18 -49 -17l-196 0q-22 0 -40 17q-16 16 -16 40l0 235q-1 25 17 48q13 18 39 19l196 0M263 -214q16 0 25 10q7 7 7 23l0 127q0 16 -7 24q-9 7 -25 9l-88 0q-16 0 -25 -8q-7 -9 -8 -25l0 -127q-1 -16 8 -26q6 -7 25 -7l88 0M641 -559l-209 0q-19 0 -29 11q-10 12 -11 28q0 18 11 29q10 10 29 11l520 0q18 0 28 -12q10 -12 11 -28q0 -18 -11 -29q-10 -10 -28 -10l-224 0q0 -25 0 -49l172 0q18 0 28 -12q10 -12 11 -28q0 -18 -11 -29q-10 -10 -28 -10l-172 0q0 -22 0 -45l204 0q18 0 28 -12q10 -12 11 -28q0 -18 -11 -29q-10 -10 -28 -10l-204 0q0 -45 -14 -57q-12 -12 -30 -12q-19 0 -32 12q-10 12 -11 57l-185 0q-19 0 -29 11q-10 12 -11 28q0 18 11 29q10 10 29 11l185 0q0 22 0 45l-157 0q-19 0 -29 11q-10 12 -11 28q0 18 11 29q10 10 29 11l157 0q0 22 0 49l0 0M532 -102l329 0l0 70q0 27 -20 36q-18 9 -76 -16q-45 -12 -61 29q-4 18 3 34q9 16 31 24q121 30 167 4q43 -24 43 -72l0 -367q-1 -28 -24 -53q-21 -22 -51 -22l-353 0q-30 -1 -53 22q-22 22 -22 52l0 405q0 22 12 35q13 12 31 11q19 0 32 -12q12 -13 12 -34l0 -146M532 -177l0 -49l329 0l0 49l-329 0M532 -301l0 -24q0 -12 9 -22q9 -9 23 -9l270 0q10 0 18 8q7 7 9 19l0 28l-329 0" />
</g>
<g id="PathID_30" transform="matrix(0.0352941, 0, 0, 0.0352941, 48, 228)">
<path style="fill:#000000;fill-opacity:1" d="M217 -44q0 46 0 96q0 19 11 32q10 10 28 11q18 -1 28 -12q12 -12 12 -31q0 -49 0 -96l140 0q18 0 28 -12q10 -12 11 -28q0 -18 -11 -29q-10 -10 -28 -10l-140 0q0 -37 0 -73l91 0q22 0 41 -18q19 -19 20 -43l0 -338q-1 -22 -16 -36q-19 -16 -45 -16l-91 0q0 -34 0 -69l124 0q18 0 28 -12q10 -12 11 -28q0 -18 -11 -29q-10 -10 -28 -10l-124 0q0 -60 -12 -71q-12 -10 -28 -10q-18 0 -29 11q-10 9 -10 70l-129 0q-19 0 -29 11q-10 12 -11 28q0 18 11 29q10 10 29 11l129 0q0 34 0 69l-105 0q-22 0 -37 15q-15 16 -14 37l0 338q-1 24 15 44q13 16 36 17l105 0q0 36 0 73l-149 0q-19 0 -29 11q-10 12 -11 28q0 18 11 29q10 10 29 11l149 0M217 -267l-48 0q-15 0 -22 -8q-7 -7 -7 -21l0 -96l77 0q0 61 0 125l0 0M296 -392l73 0l0 96q-1 13 -7 21q-7 7 -22 8l-44 0q0 -63 0 -125l0 0M217 -463l-77 0l0 -83q-1 -13 7 -23q6 -7 22 -7l48 0q0 55 0 113l0 0M296 -576l44 0q15 0 23 9q6 7 6 21l0 83l-73 0q0 -57 0 -113l0 0M681 -783l-161 0q-19 0 -29 11q-10 12 -11 28q0 18 11 29q10 10 29 11l416 0q18 0 28 -12q10 -12 11 -28q0 -18 -11 -29q-10 -10 -28 -10l-168 0q0 -72 -14 -85q-12 -12 -30 -12q-19 0 -32 12q-10 12 -11 85l0 0M735 -81q91 105 184 163q19 12 37 8q16 -3 29 -19q10 -16 8 -34q-4 -19 -25 -32q-123 -78 -183 -151q75 -117 111 -261q21 61 37 69q13 7 31 2q16 -7 23 -21q7 -18 -19 -89q-30 -75 -89 -200q-10 -18 -27 -23q-16 -3 -31 4q-16 10 -19 25q-4 16 6 35q7 15 29 60q-1 4 -1 9q-16 165 -81 289q-19 30 -20 33q-1 -1 -1 -3q-70 -117 -100 -302q-1 -1 -1 0q13 -43 25 -98q4 -19 -5 -34q-9 -12 -25 -16q-18 -3 -30 6q-13 10 -17 29q-24 135 -104 241q-13 16 -11 35q1 16 16 29q15 10 32 10q27 -4 67 -78q42 150 104 244q0 0 1 2q-70 75 -215 148q-19 10 -24 26q-6 16 4 35q9 16 26 23q30 9 149 -73q60 -43 109 -91l0 0" />
</g>
<g id="PathID_31" transform="matrix(0.0352941, 0, 0, 0.0352941, 96, 228)">
<path style="fill:#000000;fill-opacity:1" d="M859 48q36 0 60 -26q24 -25 25 -59l0 -521q-1 -34 -22 -59q-25 -27 -63 -26l-358 0q7 -18 17 -37q19 -45 29 -68l389 0q19 0 31 -13q12 -13 12 -31q0 -19 -12 -32q-12 -10 -31 -11l-844 0q-19 0 -32 12q-12 13 -12 31q0 19 12 32q12 12 32 12l358 0q-12 31 -50 105l-242 0q-36 0 -60 24q-25 25 -25 61l0 521q-1 34 26 60q25 24 59 25l701 0M661 -160l0 121l-297 0l0 -121l297 0M364 -247l0 -109l297 0l0 109l-297 0M364 -443l0 -113l297 0l0 113l-297 0M748 -556l77 0q13 0 23 11q9 10 9 24l0 449q-1 13 -9 23q-9 9 -23 10l-77 0l0 -517M277 -39l-83 0q-13 0 -24 -10q-10 -10 -10 -23l0 -449q0 -13 10 -24q10 -12 24 -11l83 0l0 517" />
</g>
<g id="PathID_32" transform="matrix(0.0352941, 0, 0, 0.0352941, 144, 228)">
<path style="fill:#000000;fill-opacity:1" d="M824 -98q25 -1 46 -21q22 -21 22 -48l0 -452q-1 -25 -18 -40q-19 -19 -50 -18l-309 0q6 -19 12 -40q4 -19 9 -33l400 0q19 0 30 -13q10 -12 11 -29q0 -19 -11 -30q-10 -10 -30 -11l-852 0q-19 0 -31 12q-10 12 -11 29q0 19 11 30q10 12 31 12l364 0q-1 3 -2 8q-10 37 -22 65l-233 0q-24 -1 -41 17q-16 18 -17 41l0 452q-1 27 17 49q15 19 41 20l633 0M805 -270l0 56q-1 16 -7 24q-10 9 -26 9l-519 0q-16 0 -25 -9q-7 -7 -8 -24l0 -56l585 0M220 -353l0 -81l585 0l0 81l-585 0M220 -517l0 -43q-1 -16 8 -26q6 -7 25 -8l519 0q16 0 26 10q7 7 7 24l0 43l-585 0M298 -83q-99 60 -221 71q-45 3 -45 46q1 18 13 30q28 25 154 -10q61 -16 142 -60q19 -10 25 -29q4 -16 -5 -33q-10 -16 -26 -20q-18 -4 -37 5l0 0M682 -6q91 19 235 85q21 9 38 4q16 -7 24 -23q7 -19 1 -34q-6 -16 -26 -26q-144 -67 -253 -91q-21 -4 -37 4q-13 10 -19 28q-4 19 6 32q9 16 31 21l0 0" />
</g>
</svg>
